/* XPM */
static char *result[] = {
/* columns rows colors chars-per-pixel */
"80 80 254 2 ",
"   c #020101",
".  c #090501",
"X  c #000A04",
"o  c #0B0A03",
"O  c #0C0C0B",
"+  c #130B00",
"@  c #140E07",
"#  c #021609",
"$  c #1B1300",
"%  c #151208",
"&  c #141312",
"*  c #181714",
"=  c #1B1916",
"-  c #1C1C1B",
";  c #241500",
":  c #231C00",
">  c #2B1A00",
",  c #321E00",
"<  c #211C16",
"1  c #053318",
"2  c #2B2200",
"3  c #382701",
"4  c #3D3100",
"5  c #24221D",
"6  c #27281F",
"7  c #3B2A11",
"8  c #242424",
"9  c #292621",
"0  c #2C2A24",
"q  c #2A2729",
"w  c #2D2C2D",
"e  c #312E29",
"r  c #36342C",
"t  c #39352E",
"y  c #2F3A33",
"u  c #333333",
"i  c #3D3A33",
"p  c #393A38",
"a  c #442901",
"s  c #4B2D01",
"d  c #483A00",
"f  c #543301",
"g  c #583601",
"h  c #5C3901",
"j  c #633E00",
"k  c #69221B",
"l  c #423D37",
"z  c #782926",
"x  c #16562F",
"c  c #165C32",
"v  c #255336",
"b  c #0F6F37",
"n  c #4D410E",
"m  c #584601",
"M  c #674001",
"N  c #644607",
"B  c #694201",
"V  c #6F4F0F",
"C  c #785801",
"Z  c #7C6400",
"A  c #48433B",
"S  c #584733",
"D  c #73562E",
"F  c #7C6037",
"G  c #017748",
"H  c #177C48",
"J  c #356F54",
"K  c #4A4845",
"L  c #534D44",
"P  c #4A574A",
"I  c #5B554A",
"U  c #545454",
"Y  c #5B5B59",
"T  c #635A4C",
"R  c #72544A",
"E  c #635D52",
"W  c #55675C",
"Q  c #6A6458",
"!  c #726B5D",
"~  c #5B6760",
"^  c #646465",
"/  c #6B6A68",
"(  c #756F67",
")  c #797468",
"_  c #767675",
"`  c #8F3C38",
"'  c #AB3F3F",
"]  c #D71514",
"[  c #DB3736",
"{  c #845C0C",
"}  c #876B02",
"|  c #946D00",
" . c #987800",
".. c #B37707",
"X. c #8B6A37",
"o. c #9F6234",
"O. c #C97E01",
"+. c #954846",
"@. c #B54848",
"#. c #8C734F",
"$. c #867A68",
"%. c #8F7D6C",
"&. c #B36E66",
"*. c #D7504E",
"=. c #E45C5C",
"-. c #C7645D",
";. c #C46A62",
":. c #CA756C",
">. c #CA7C73",
",. c #D57372",
"<. c #008A3D",
"1. c #128846",
"2. c #0A9A4B",
"3. c #0A8A59",
"4. c #268859",
"5. c #368C56",
"6. c #06AC52",
"7. c #04B85A",
"8. c #019562",
"9. c #039966",
"0. c #149866",
"q. c #289A6B",
"w. c #2DB263",
"e. c #738A5D",
"r. c #4C996F",
"t. c #6A9771",
"y. c #52A476",
"u. c #00C45E",
"i. c #02C661",
"p. c #0BC462",
"a. c #00CD65",
"s. c #16C467",
"d. c #2EC36F",
"f. c #51C47E",
"g. c #A78600",
"h. c #B38A00",
"j. c #B99400",
"k. c #AD9019",
"l. c #AA8F23",
"z. c #CD8101",
"x. c #C7830F",
"c. c #C49D00",
"v. c #D6AA00",
"b. c #D4AB05",
"n. c #E3B401",
"m. c #EBBC00",
"M. c #D0A030",
"N. c #F3C200",
"B. c #F8C600",
"V. c #FECC00",
"C. c #FFD100",
"Z. c #888B6E",
"A. c #9C8466",
"S. c #979665",
"D. c #8C8474",
"F. c #948A79",
"G. c #9B937C",
"H. c #AA9A60",
"J. c #AE8C74",
"K. c #A7947A",
"L. c #CFA25C",
"P. c #C78D76",
"I. c #D3867B",
"U. c #EEC44E",
"Y. c #F4D367",
"T. c #7F8181",
"R. c #70AC89",
"E. c #77CB94",
"W. c #878786",
"Q. c #949082",
"!. c #999384",
"~. c #979796",
"^. c #A69A87",
"/. c #A99C8D",
"(. c #92B395",
"). c #A9A48B",
"_. c #B6A989",
"`. c #BCB38B",
"'. c #AAA696",
"]. c #B6AA97",
"[. c #BBB19A",
"{. c #9FA1A0",
"}. c #A9AEA5",
"|. c #B9B4A5",
" X c #BABAB6",
".X c #CF9188",
"XX c #D9958B",
"oX c #DA9A93",
"OX c #E58282",
"+X c #CCAF92",
"@X c #D9A598",
"#X c #C7B69B",
"$X c #E1A89B",
"%X c #C1B4A3",
"&X c #CABCA5",
"*X c #CDB4AD",
"=X c #C8BAA8",
"-X c #D8B6A9",
";X c #E4AFA7",
":X c #E8B7A9",
">X c #91CDA1",
",X c #AECCAF",
"<X c #B9D7BA",
"1X c #E3C399",
"2X c #CCC2A8",
"3X c #D5C6AA",
"4X c #C9C7B9",
"5X c #D5C7B7",
"6X c #DCCDB4",
"7X c #DCCCBB",
"8X c #D2D3BD",
"9X c #E4D1AD",
"0X c #EAD6AF",
"qX c #EBC3B4",
"wX c #EACBB2",
"eX c #E6D4B6",
"rX c #EBD9B4",
"tX c #E4D4BB",
"yX c #EEDDBC",
"uX c #F1DEBC",
"iX c #F8DABD",
"pX c #C4C4C3",
"aX c #CACAC4",
"sX c #CBCBCB",
"dX c #D5CFC5",
"fX c #C8D6C3",
"gX c #D4D4C9",
"hX c #DADACB",
"jX c #DEDED2",
"kX c #DAD9D9",
"lX c #E4D4C3",
"zX c #E8D7C6",
"xX c #EEDEC2",
"cX c #EBDBCA",
"vX c #F7DBC8",
"bX c #E5DED2",
"nX c #EFE1C6",
"mX c #EEE1CA",
"MX c #F2E1C3",
"NX c #F6E6CC",
"BX c #FDE2C8",
"VX c #F8E8CE",
"CX c #E2E2D6",
"ZX c #E4E4D8",
"AX c #E8E6DB",
"SX c #F4E3D2",
"DX c #FBE5D3",
"FX c #F7E9D3",
"GX c #F8E9D2",
"HX c #F6E9D9",
"JX c #FEEDDA",
"KX c #FFF0DD",
"LX c #EDEFEF",
"PX c #FFF2E2",
/* pixels */
"uXuXMXVXNXxXNXNXMXMXMXMXMXMXMXMXMXuXnXuXMXuXuXuXMXuXuXuXuXuXyXyXyXrX0XuXyXrXrXrXrXrXrXyXrXyXrXrXrXrXrXrXrXrXrXrXrXrXrXrX0XrXrXrX0XrXnXrX0XrX0X0X0X0XrXrXrX0X0X0X",
"MXVXMXVXNXxXNXMXyXNXMXMXMXMXMXMXMXnXMXMXMXMXMXuXuXyXnXuXuXuXyXyXrXuXrXyXyXyXrXrXrXyXrXrXnX9X0XxXrXyXrXrXrXrXrXrXrXrXuXrXrXrX0XnXnXrX0XrXrXuXxX0XrXrXrX0X0X0X0X0X",
"yXNXVXNXNXNXnXNXNXxXMXMXMXMXMXMXNXnXMXnXMXuXMXMXnXnXMXuXxXxXyXuXuXrXuXuXyXyXuXyXrXrXrX0X$.t i A Q G.#XrXrXuXrXrXyXrXrXrXuXrXrXrXrXrXrXrXrXrX0XrXrX0XrX0X0X0XrX0X",
"xXNXVXMXNXNXFXNXMXVXNXMXMXNXMXMXNXMXMXMXMXMXMXMXMXuXMXyXyXuX9XD.! D._.#X9XyXyXrXyXyXyX^..         X = S ^.eXyXyXrXyX#X$.Z.3XrXrXrXrXnX0XnX0XrXrXyX0X0XnXnX0XrX0X",
"MXVXNXNXNXNXNXNXNXMXMXMXVXMXMXMXNXMXMXNXMXMXuXMXuXuXMXnXuXMX!       o & t Q ^.3XuXyXyXT   ; a 3 ; + .   O L #XrXrXD.5     L 9XrXrXyXrXnXrXyXrXrX0XrXrXrX0X0XrXrX",
"MXVXNXNXSXNXNXNXNXMXMXMXMXVXNXSXMXNXnXMXnXBXMXNXMXMXMXMXuX6X9   $ $ . .     o 6 Q [.&Xr   a j B B h s > .   - K.F.O   + .   D.xXyXrXyXrXrXrXrXrX0XrX0XrXrXrXrX0X",
"VXNXNXNXFXNXNXNXNXNXNXNXNXNXNXMXMXMXNXNXMXNXMXMX3X[.2XeXMX_.o $ j j h f a , + .   O - . . f B B B B B j s $   O @   > g >   5 3XuXyXnXrXrXrXuXrXrXrXrX0X0XrXrX0X",
"NXNXNXNXFXNXNXFXVXuXNXMXNXVXMXNXNXMXNXMXMXMXuX2Xi o % 0 A l   3 B j B B B j h s ; . . . + j B B B B B B B h > .   $ h B f .   $.rXnXrXuXuXyXrXrX0XxXrXyXrXxXrX0X",
"MXMXNXFXFXNXNXFXVXNXNXNXNXVXMXNXNXNXMXVXnXMXMX!   . . .     . s B B B B B B B B j s s s s B B B B B B B B B j ,   3 B B j > . t eXrXvXrXyXyXrXrXrX0XrXyXrXrXrXrX",
"NXNXNXFXNXNXNXFXVXNXNXMXNXNXNXVXFXnXVXFXVXMX3X5   a h f a , ; g B B B B B B B B B B B B B B B B B B B B B B B j > s B B B s . O `.uXnXrXyXyXnXrXuXuX0XyXyXrX0XrX",
"NXNXVXVXNXNXFXNXVXNXNXNXNXNXNXNXFXNXVXnXMXMXG.  + h B B B B j j B B B B B B j B B B B B B B B B B B B B B B B B g j j B B h +   D.rXyXrXyXyXMXMXyX0XrXrXrX0XrXrX",
"VXNXNXVXNXVXVXNXNXNXNXNXNXMXNXNXnXSXVXNXNXMXQ   > B B B B B B B B B B B B B B B B B B B B B B B B B B B B B B B j B B B j j $   I 3XxXyXuXrXrXrXuXyXyX0XrXrXrXrX",
"NXNXNXVXFXNXFXFXVXVXVXNXNXNXNXNXNXVXVXNXNXxXA   3 B B B B B B j B B B B B B B B B B B B B B B B B B B B B B B B B B B B B B >   X 5 D.yXuXuXrXyXyXrXyX0XrXrXrXyX",
"NXNXNXFXVXVXFXVXVXMXNXNXVXNXNXMXVXMXNXNXMXeXt   a j B B B B B B B B B B B B B B B B B B B B B B B B B M B B B B B B B B B B ; . .   = +XrXuXrXuXxXuXyXrXrXrXrXrX",
"NXNXNXFXNXNXGXGXVXNXNXNXVXMXNXNXNXNXNXVXMXyXt   a B B B B B B B B B B B B B B B B B B B B B B B B B B B B B B B B B B B B j , a s . O _.yXyXyXrXuXyXyXrXrXrXyX0X",
"NXVXVXFXVXGXGXGXNXVXNXVXVXNXNXNXNXNXSXVXMXxXA . , j B B B B B B B B B B B B B B B B B B B B B B B B B B B B B B B B B B B j g B a   < #XuXyXMXyXrXyXyXrXrXrXrXrX",
"NXNXVXGXFXGXNXGXGXGXVXNXNXVXNXNXnXVXVXNXnXMX!   ; j j B B B B B B B B B B B B B B B B B B B B B B B B B B B B B B B B B B B B M >   i eXuXrXMXuXrXuX0XuXrXyX0XrX",
"NXFXNXVXVXHXNXNXNXNXVXVXNXVXVXNXNXVXFXNXMXVX^.X + h B B B B B B B B B B B B B B B B B B B B B B B B B B B B B B B B B B B B B g +   ( uXMXMXuXrXuXuXuXrXuXyXuX0X",
"NXNXVXGXGXFXVXGXVXVXnXVXVXVXNXNXNXNXGXNXMXMX6X5 . s B j B B B B B B B B B B j j B B B B B B B B B B B B B B B B B B B B B j B 3   O #XuXuXuXMXuXMXuXrXMXuX0X0XuX",
"NXNXFXHXFXNXGXGXGXVXVXNXNXGXVXNXVXNXNXNXMX6X^.5 . a B j B B B B B B B B B j j h j j j j j j j j j j j j j B B B B B B B B B j +   T zXuXuXuXxXuXxXrXMXrXyXyX0XyX",
"NXGXFXHXFXVXGXVXGXGXFXVXVXNXVXVXNXNXGXmXF.0 X   . a j j B B B B B B B j V D #.#.#.%.A.A.A.A.A.#.#.#.X.D D N j j j N j B B j > . 5 &XMXMXuXMXMXMXuXrXrXxXrXMXrXrX",
"NXGXFXVXVXGXFXGXNXFXVXFXVXVXFXVXNXVXxXQ   o m }  .g. .{ B B B B B B j #.lXNXSXDXJXJXDXJXPXJXJXJXJXDXSXNXzX7X-X].J.#.F V h ;   O !.MXuXMXuXMXrXxXuXMXuXuXyXrXyXrX",
"NXGXVXFXVXGXFXVXFXNXVXVXNXGXNXFXNXMX)   2 j.B.C.C.C.V.m.c.{ j B B B h J.KXJXJXJXKXKXKXKXJXJXJXJXJXJXJXJXJXJXKXKXKXKXSXtXR   & %.uXMXMXMXMXxXMXMXuXuXuXuXxXuX0X0X",
"NXVXFXFXFXGXFXFXGXFXFXFXVXFXNXFXVX%X& : c.C.m.g.} ..v.B.B.n.{ j B B j &XKXJXJXiX:XoXoX$XqXDXJXJXJXJXDXJXJXJXJXJXvXvXHXKXA.  I cXxXuXuXxXMXMXMXMXxXMXMXrXuXuXuX0X",
"NXVXVXVXGXVXHXGXGXFXVXFXFXFXGXVXFXE .  .V.b.4   . g B | n.V.v.C j B V lXJXvXXX:..X$X$XoX>.,.qXJXJXJXJXJXJXJXDX$X:.:.I.vX%.. K NXMXxXMXMXMXMXMXMXxXyXyXuXyXyX0XuX",
"NXNXVXGXGXGXHXGXKXFXGXVXFXGXGXVX=X= 4 N.m.d     . g B B { m.V.h.B j X.DXvX;.oXvXSXcXJXPXPXqX:.:XJXJXJXJXJXJX;X:.vXvXoXI.#.. A eXNXMXMXMXMXxXxXMXMXMXMXyXuXyXuXyX",
"NXNXFXFXGXVXGXGXHXNXNXGXGXGXGXNXD.   .C. .  O o . g B B j ..V.n.C j #.BX>.;X*X%.#.F #.J.*XSXvX:.qXJXJXJXJXDX:.+XA.#.%.&.D   l yXMXMXMXMXMXxXMXMXMXxXMXMXuXyXuX0X",
"NXVXGXFXGXGXGXGXVXVXGXNXNXNXFXnXi $ b.N.4   L 0 . g B B j C n.B.{ j %.oXXXKXlX-X%X_.K.%.%.^.SXqX:.DXJXJXPX:X&.^./.#XqX;Xk   i xXMXMXMXMXMXMXMXuXMXuXxXMXuXuXyXyX",
"NXNXNXNXFXGXGXGXGXGXFXFXFXNXGX2XO m V.c.o O /.t . s B B B B v.V...B A.:.vXKXPXPXPXPXPXPXKXSXHXPXI.:XKXcXHXoXoXHXPXPXPXvXz   u cXMXNXnXMXMXMXMXMXMXMXMXMXMXyXyXuX",
"VXGXVXVXGXGXGXGXGXGXFXGXGXGXGXZ.  } C.}   r 6Xl   a B B B B j.C.U.1X$X,.JXJXzXdXpX*X*X}.Q.|.4XHX;X-.I.&.&.-..XsX*X/.pXvX` . t eXVXMXnXnXMXMXMXMXMXxXnXxXMXMXuXrX",
"NXGXVXVXGXVXVXFXGXGXGXGXNXGXFXI o c.V.d   ! vXK   3 B B B V M.C.Y.PX:X.XPXSX}.sX}.kXLX~.- ~.HXKXqX-.qXqX!.;.*XkXkXU }.5X+.. e zXMXMXSXMXMXMXMXMXMXxXMXMXMXrXMXyX",
"GXMXVXFXGXFXVXFXGXHXGXGXGXFX8X0 2 m.n.$ X ).VXI   > B B B P.Y.C.Y.PX:X.XHXvX XLXT.pXLX/ & / HXHX:XI.KXJX*X&.@X~.{.w ~.5X+.. t eXMXMXNXMXMXNXMXxXMXMXMXuXuXMXyXuX",
"GXNXFXHXFXFXFXFXFXFXFXFXFXFX%XO m C.j.. = 5XVX(   ; M M X.+XS.H.G.|.qX>.SXSX}.AX_ w p - & _ SXHX@XoXJXJX5X&.oX^ & 8 {.-X` . e xXMXMXMXVXnXxXMXMXxXMXMXxXMXuXuXuX",
"GXGXFXFXFXHXFXKXFXGXVXNXVXVXG.  Z C.}   l mXVXF.  @ j B H.1XA.#.$.'.SX:.qXSX*XkXsXp & - K *XSXcX>.:XJXJXcXJ.>.'.l / sXoX+.% 0 6XVXMXMXVXMXMXMXVXMXMXMXMXMXuXrXMX",
"NXVXVXGXKXFXGXGXFXVXVXFXFXFX!   g.C.N   ! NXVX[.O . h N L.$Xz.z.x.wXKX$X>.cXhXcXSX*X!.'.aXcXbX@X>.DXJXJXHX'.;.-XlXlXlX:.J.@ 5 tXNXxXSXMXMXmXMXMXMXMXMXMXMXyXuXuX",
"VXNXGXFXFXFXGXHXVXVXGXNXFXSXA o c.B.d   F.VXNX6X5 . s N L.L...z.M.xXJXDX.X.XlXzXlXlXvXcXzXzX-X-.iXKXJXKXJX|.@X;.-XlX.X>.+XO 5 7XVXVXNXMXMXVXMXMXMXMXNXMXuXMXMXMX",
"VXNXVXGXKXHXFXFXVXVXVXGXNXlX0 $ v.N.2 X ].VXNXNXL   , j &.M.z.z.M.DXJXJXvX,.>.5XlXdXlXdX7XXX;.qXzX*X*X5X|.'.SX$X;.;.I.BX+Xo 8 lXVXMXVXMXMXGXFXMXNXMXnXMXMXMXuXuX",
"NXGXFXFXGXFXFXFXGXVXNXGXHX2X- > N.v.$ & =XVXNXNXD.  $ j { ..z.z.L.JXJXJXJXDX@X;.:.P..X>.;.>.vXJXSX7X5X5XtXDXJXJXvXvXJXKXJ.. t eXFXMXVXMXNXMXMXMXMXMXNXMXnXnXuXuX",
"NXFXFXGXFXFXFXFXFXMXGXFXFX|.O 3 B.c.o - 3XGXNXNX&X* . s B ..z.z.L.PXJXJXJXJXKXDXqX$X$X;XvXDXJXJXJXJXJXKXJXJXJXDXJXJXJXJX%.  L xXNXxXNXNXNXMXMXMXVXVXcXMXnXxXMXuX",
"NXGXNXGXFXGXFXFXGXNXFXGXDX).O d B.c.o 0 tXMXVXNXzXA O 7 D ..z.x.rXPXDXJXJXJXDXJXJXKXJXKXJXJXJXJXJXJXJXJXJXJXJXJXJXJXJXBXR   $.HXVXMXNXVXVXMXNXMXMXMXMXMXnXMXuXuX",
"GXGXHXGXHXFXGXGXGXVXVXFXFX!.X d V.j.. r lXVXVX|.A - p U ^ #.X.#.K.P.wXVXJXJXJXDXJXJXJXDXcXtX5X5X5X7XzXDXJXDXJXJXJXJXJX+X< @ %XGXNXMXFXMXMXVXMXMXMXMXxXGXMXMXMXxX",
"GXNXGXFXVXFXGXVXGXFXVXVXNXF.  m V.h.. y xXMXeXe   & U Y U ~ ^ ^ R l 6XJXJXJXJXJXJXJXJXVX%X%X|.G.Q./.|.tXJXJXJXJXKXDX+Xr . K xXNXNXnXNXNXnXNXVXMXGXNXMXMXuXxXMXMX",
"NXNXGXGXGXHXHXGXFXFXVXVXGXD.  m V.h.  i cXVX!.  & p U U Y E ^ +.@.` #XGXJXJXJXKXJXKXJXJXJXKXHXlXtXlXJXJXJXJXBXuX+X#.=   5 %XVXVXNXnXVXnXNXFXnXMXxXNXxXMXMXMXuXMX",
"VXFXGXFXHXGXGXGXFXVXFXVXVXD.  m C.h.  i xXMXQ   w Y Y K k.b.T +.OX' $.Z.f.t.(.2XrXiXiXiXBXiXBXMXvXvXBXBXBX1Xe.t %     t [.FXSXxXFXVXFXNXNXnXNXMXDXMXMXVXMXxXMXMX",
"GXFXFXGXGXGXGXFXNXGXVXFXNXF.. m C.h.. r cXNXL X u Y U K k.M.%.Q.&.R J 3.8.8.8.3.5.Z.K.K.`.`.`.`.*X=X`.`.K.H.5.G 1 X   Z.GXSXNXFXFXNXSXFXVXMXMXNXMXxXMXMXVXMXxXxX",
"NXFXGXGXKXFXGXHXGXVXNXGXDXQ.X m C.j.. e zXNXE   - U U I n.M.}.kXpXW.3.9.0.9.9.9.8.4.e.S.S.H.S.G.pX XS.S.S.S.r.9.3.A O 5 &XMXMXNXNXNXNXMXNXNXVXvXGXMXNXMXMXxXMXMX",
"NXFXGXHXFXNXGXGXNXVXVXNXHX/.X d V.c.o 0 tXDX/.X O K Y I l.L.sXLXLX{.y.(.,X}.R.9.8.8.5.S.S.S.`.|. X X).S.S.S.e.8.9.y.P   I MXFXFXVXFXNXNXMXNXGXNXNXMXMXMXMXMXuXMX",
"GXNXGXGXGXGXGXGXHXFXFXFXVX].O 4 N.v.+ * 3XNX=X& X p Y ~ ~ ~.ZXLXZX X-X-XkXkXhX(.9.9.q.).,X8XjXfXpXpXgXaX|._.t.3.3.4.Q.@ & ].NXFXNXNXNXVXnXNXxXGXMXMXVXxXxXMXMXMX",
"NXNXGXGXFXGXGXFXFXFXGXGXFX2X& 2 m.v.$ O |.VXxXL   O K Y Y W. XkXpX*X[ oXLXXX;XlXr.3.3.fXZXCXCXjX XpXjXZXCXZX4X4.G G (.A . E SXHXGXNXNXNXNXNXMXNXMXNXMXMXMXMXxXxX",
"FXFXFXKXGXGXGXFXFXFXFXVXVX8X6 % b.N.3 X ).MXMX|.O o { X.#.Q T.~.W.*X;XkXkXoX-.kXR.G H pXCXCXCXjX XsXZXCXCXCXhXr.G G R.Z.. & =XFXSXMXNXMXNXMXMXVXMXMXxXVXuXMXMXMX",
"GXFXFXHXGXGXGXGXFXGXVXGXNXcXv . j.V.m   $.NXNX=X& $ ..O.x.V Y / }.oX=.*.*.[ [ lX(.G H fXZXCXCXjX XgXCXCXCXCXmXR.G G R.4X5   ) HXVXNXNXVXxXNXMXMXVXuXMXNXxXMXMXMX",
"NXFXGXFXGXGXGXGXFXGXVXVXGXVXT .  .C.C   U NXVX[.o > O.z.O.N U ( kXoX] OX;XOX-.7Xr.G 4.fXCXCXCXjX XgXCXCXCXCXZX(.0.8.R.gXQ   e lXVXVXMXVXVXMXMXNXMXMXMXMXMXMXxXuX",
"FXGXGXGXKXGXGXGXGXHXVXVXGXNX%.  C C.g.X e tXBX'.  3 h.O.O.7 P '.kXbX=.*.,.,.-X<X4.8.r.hXCXCXCXjX XhXZXCXCXCXCX,X0.8.R.AX[.% X ).MXMXVXNXMXMXVXMXnXVXGXxXMXMXMXMX",
"VXFXGXHXGXGXGXGXGXVXVXNXNXHX].X 4 B.c.% & =XNX)   a z.x.| % I 4XbXkXkXoXI.-XbXR.9.8.R.CXCXCXCXjX XgXCXCXjXCXCX8Xq.0.,XhX>Xc   Q FXMXMXMXNXMXxXVXxXVXuXMXVXxXxXMX",
"NXVXGXGXFXGXGXHXJXVXVXNXVXGX5X= $ v.N.3   !.6X9 O E o...D & e.kXAXZXbXAXAXAXfXq.8.q.fXZXCXCXCXjX XkXCXCXCXCXCXhXr.y.E.d.i.6.# t tXVXMXMXMXMXMXMXVXNXMXMXMXuXMXMX",
"GXnXGXGXFXHXGXGXFXVXNXVXVXGXMXA   g.C.C   T eXi O p _ ( Q v w.>XfXkXbXZXAXAX(.3.R.,XZXZXCXCXCXjX XgXCXCXZXCXjXaXy.p.a.a.a.a.1 O #XVXVXNXMXMXNXMXMXMXMXxXMXMXMXxX",
"VXVXVXVXFXGXGXFXVXVXVXVXMXVXGXD.  N C.j.X 0 5XA   & Y K # b a.a.s.R.>X,X,X,X).(.aXgXhXgXdXaXaXaX XpXaXaX}.W._ / W a.a.a.a.2.1 . D.FXMXMXMXNXNXNXMXMXMXMXuXMXnXuX",
"VXVXVXVXVXGXVXFXGXFXVXNXVXGXNX|.O 2 n.N.2 O D.= * U Y K # 1.a.a.a.a.u.p.a.7.W / / / _ _ W.pXsXsXpXpXsXsXW.^ / ^ W 7.u.2.b p 5   I VXMXFXMXMXMXMXMXMXVXuXuXMXMXMX",
"NXVXVXVXGXVXGXVXGXGXNXNXVXVXVXnXp   g.C.Z   = X u T._ / 8 x 2.7.a.a.a.a.a.7.~ / ^ ^ ^ ^ W.sXsXsXsXsXsXsXW./ ^ / U c v y u u w O r eXNXMXyXxXMXMXMXMXMXMXMXMXuXyX",
"NXVXGXGXGXFXGXFXGXGXVXNXVXVXVXVXD.  m V.v.$     K ~.{.T.8 w y v 1.6.u.u.i.4.^ / ^ ^ ^ ^ T.pXsXsXsXsXsXsXW.^ ^ ^ U y p u u u w O = 6XNXVXVXMXNXMXMXMXMXuXMXnXMXuX",
"VXVXVXGXFXFXFXVXFXVXVXVXVXVXVXNX5X= + c.V.Z     - _ W.U 8 u u u u y v c b ~ / ^ ^ ^ ^ ^ T.sXsXsXsXsXsXsX~.^ ^ ^ U u u u u u w O * 2XVXnXMXVXMXMXNXMXMXnXnXuXuXMX",
"NXVXFXGXGXHXVXFXFXVXVXNXVXVXVXFXNXQ   m B.n.2     - 8 O 8 u u u u u p w K ! ^ ^ ^ ^ ^ ^ T.sXsXsXsXsXsXsXW.^ / / p u u u u u -   0 6XMXMXNXMXMXMXMXuXuXMXMXnXuXuX",
"NXVXVXFXJXVXVXNXFXFXNXFXVXFXFXNXFX&X= o g.C.j.$         & u u u u u u w ^ =X}.{.~.!.W.W.~.pXpXpXpXpXpXaX,X*XaX4Xp - w u u -     I MXMXNXMXNXnXMXMXuXMXuXMXuXyXyX",
"NXFXFXNXFXFXFXVXGXFXFXFXNXVXGXNXVXFX)   2 v.V.g.%         8 u u u u w q / AXAXAXZXZXZXCXjXhXhXjXjXCXjXCXZXZXZXaX0   O O O     * [.VXMXuXMXuXMXMXMXuXuXMXMXMXrXyX",
"VXFXFXVXGXVXVXVXGXFXNXFXNXNXVXFXNXNXtXv   d n.V.j.3 X     . = 8 w n } ) 4XCXCXCXCXCXCXCXZXZXAXCXCXCXCXCXCXCXCX8X6           0 ^.FXMXNXMXNXMXMXxXuXMXuXMXuXuXuXyX",
"NXFXVXVXNXVXVXFXFXFXNXFXVXNXVXNXNXNXNX-X0   d v.C.n.} 2 o     % } m.b.`.ZXCXCXCXCXCXCXCXtX,X).|.4X8XgXCXCXCXCX8X0   A E ! G.3XNXFXMXuXNXxXNXMXMXMXuXMXuXrXuXMXuX",
"FXFXFXVXnXVXVXNXGXVXNXNXNXVXNXFXNXNXNXNX[.0   2 g.N.C.m.c. . .c.V.N.m G.ZXCXCXCXCXCXCXCX}.6 o $.CXhXtXjXCXCXCX8X6 . ^.NXVXxXSXMXMXMXNXnXxXVXuXMXuXMXuXuXMXuXuXrX",
"FXFXFXFXVXNXVXVXNXVXNXNXnXNXNXNXNXNXNXNXMX=XA   . n g.n.V.C.C.C.v.m . G.AXZXCXCXCXZXCXAX'.o   Z.ZXCXCXZXZXZXZX4X6 X !.MXxXVXMXFXnXNXuXMXMXMXuXuXMXuXuXuXuXuXrXuX",
"VXVXNXVXVXNXNXVXFXGXMXNXVXVXNXVXNXNXMXNXNXNXeX$.5     : m C Z m $   # w.>X<XfXfXfX<X,XE.w.1   1.E.,X<XfX<X,XE.d.x   ) nXMXMXVXVXMXMXMXMXnXMXuXMXMXuXuXrXyXyXuXrX",
"VXVXMXNXVXVXVXnXVXNXVXNXNXNXnXMXBXxXNXVXNXMXMXNX3X$.t O             1 u.a.s.s.d.d.s.p.a.a.b X 6.a.a.s.s.p.i.a.a.2.X A yXMXnXxXMXVXMXMXuXxXMXuXMXuXuXuXuXyXyXMXyX",
"MXVXVXVXVXMXNXNXVXGXNXVXNXNXMXVXNXVXMXSXMXMXNXNXMXMXeX#XF.! Q ) T   1 u.a.a.a.a.a.a.a.a.u.b # 6.a.a.a.a.a.a.a.p.<.X 5 6XVXMXMXMXVXxXMXMXuXnXuXuXuXyXyXyXyXyXyXyX",
"MXVXVXVXVXVXMXMXMXVXNXMXMXNXNXVXMXMXMXMXuXNXMXuXMXMXNXMXMXuXMXMXG.X # x H 2.2.2.6.2.1.b x # X 1 b 1.1.1.1.1.b v #   i tXMXxXMXMXMXMXMXMXuXMXuXMXuXyXMXyXyXuXyXyX",
"VXGXMXVXVXVXMXuXVXVXVXuXMXMXVXMXNXMXuXNXMXMXMXMXMXMXMXNXMXuXMXuX2X5   - u u u y y u u u -     & t u u u u u u 8     Q.MXMXMXNXMXVXMXuXMXMXyXMXyXyXyXyXyXuXyXyXyX",
"MXVXGXMXMXNXVXVXVXMXVXVXVXnXVXMXMXMXVXMXVXMXuXMXMXMXMXMXuXMXNXMXuXA   O 0 w w u u u u q &     X < 8 w w w 8 8 &   O ].MXMXMXMXnXxXuXuXMXMXuXyXxXMXyXyXyXuXyXrXuX",
"MXVXVXMXMXVXVXMXMXVXVXuXNXMXMXVXMXMXMXMXMXuXuXuXMXMXMXNXuXMXuXMXMXQ       O O & & O O X     X       .   O         l 9XyXMXyXyXMXMXyXuXMXyXMXyXyXyXyXyXyXyXyXyXuX",
"MXMXGXMXVXMXMXNXMXVXVXMXMXMXnXMXMXMXMXMXMXMXuXuXMXMXMXMXMXuXMXMXNX3XI -                 % K Z.E q O       o * i ) &XxXxXMXyXMXMXMXMXuXuXMXMXuXyXyXyXyXyXyXrXyXrX",
"NXMXMXVXMXMXNXuXMXVXMXNXMXMXMXMXMXMXMXMXnXMXMXMXMXuXMXuXMXuXMXMXuXMXnX2XG.! L A l A Q F.#XyXMXMX6X].^.F.G.).2XeXuXuXMXyXMXMXrXNXMXnXxXMXxXuXyXyXyXyXuXyXrXrXuXrX",
"MXMXMXVXMXVXMXMXuXNXMXuXNXMXMXMXMXMXMXMXuXnXMXuXuXuXuXMXMXMXuXuXuXnXMXnXMXMXuXyXzXMXMXMXnXMXnXnXMXuXyXMXvXuXMXuXMXuXuXuXyXyXMXyXMXxXMXuXyXyXyXyXuXrXrXyXuXrXrXyX",
"MXMXMXNXNXMXMXMXMXMXMXMXMXMXMXuXMXMXMXMXMXuXuXMXnXuXyXnXnXuXMXuXuXnXuXnXMXMXnXnXMXnXMXuXMXnXuXMXMXMXyXnXMXMXMXyXxXyXyXyXyXyXMXyXuXuXuXuXyXyXrXyXyXyX0X0XrXrXrXrX",
"NXMXMXMXMXMXMXuXMXNXnXMXuXuXMXuXMXuXuXuXyXnXuXyXyXuXuXMXnXuXnXuXuXMXuXuXMXuXnXMXMXMXuXuXuXMXuXuXMXxXyXmXrXyXyXyXuXyXyXyXyXyXyXnXuXuXuXyXyXyXyXrXyX0XrXrXrXyXrXrX"
};
