/* XPM */
static char *result[] = {
/* columns rows colors chars-per-pixel */
"80 80 242 2 ",
"   c #1B1B18",
".  c #1C261C",
"X  c #23291D",
"o  c #27391E",
"O  c #161D22",
"+  c #1E2625",
"@  c #252B29",
"#  c #2A3527",
"$  c #32362B",
"%  c #232C33",
"&  c #242F39",
"*  c #25323C",
"=  c #2A373A",
"-  c #32393C",
";  c #583821",
":  c #335619",
">  c #357217",
",  c #2E442C",
"<  c #395728",
"1  c #3B4636",
"2  c #3D6926",
"3  c #3C7A22",
"4  c #516716",
"5  c #53492F",
"6  c #454A3A",
"7  c #49543B",
"8  c #6A5632",
"9  c #4C742F",
"0  c #537C39",
"q  c #786735",
"w  c #283946",
"e  c #2C3A44",
"r  c #323C44",
"t  c #374847",
"y  c #35434C",
"u  c #2E4450",
"i  c #374956",
"p  c #3C4D5B",
"a  c #3C545B",
"s  c #3F6056",
"d  c #384E61",
"f  c #3A5366",
"g  c #3D596E",
"h  c #3D5C73",
"j  c #3D5B75",
"k  c #3E606C",
"l  c #474B47",
"z  c #48544C",
"x  c #545845",
"c  c #424D56",
"v  c #445457",
"b  c #615C41",
"n  c #5A6449",
"m  c #567050",
"M  c #636753",
"N  c #6B7951",
"B  c #6C7758",
"V  c #4E5964",
"C  c #445B6B",
"Z  c #485868",
"A  c #445D73",
"S  c #56666C",
"D  c #4C6977",
"F  c #42637C",
"G  c #4A6579",
"H  c #556977",
"J  c #546C7C",
"K  c #59717D",
"L  c #777A68",
"P  c #717576",
"I  c #895C29",
"U  c #917031",
"Y  c #B37539",
"T  c #3A8C17",
"R  c #4D931A",
"E  c #62971D",
"W  c #4AA81D",
"Q  c #66AB1A",
"!  c #478729",
"~  c #538F35",
"^  c #6F9638",
"/  c #56B027",
"(  c #68B829",
")  c #69AC30",
"_  c #73C62D",
"`  c #5B8845",
"'  c #658948",
"]  c #6A974B",
"[  c #73964D",
"{  c #688655",
"}  c #74865A",
"|  c #769A58",
" . c #6EA948",
".. c #79A657",
"X. c #7AB357",
"o. c #7B8763",
"O. c #769667",
"+. c #79AA72",
"@. c #85B82F",
"#. c #88D031",
"$. c #A2DF38",
"%. c #84985B",
"&. c #84AB5D",
"*. c #85B75D",
"=. c #83896A",
"-. c #859967",
";. c #928E7D",
":. c #8A9672",
">. c #949B77",
",. c #8AA868",
"<. c #91A96D",
"1. c #8CB765",
"2. c #92B46D",
"3. c #93BC6B",
"4. c #98A778",
"5. c #9AB776",
"6. c #A3AE7F",
"7. c #A3BA7D",
"8. c #8FD54A",
"9. c #99E150",
"0. c #A4E55B",
"q. c #97C46A",
"w. c #9CC275",
"e. c #A3C57C",
"r. c #A8C77D",
"t. c #476B86",
"y. c #526E86",
"u. c #4C7289",
"i. c #5A7588",
"p. c #5A7A94",
"a. c #647B86",
"s. c #747C81",
"d. c #647D95",
"f. c #5C819A",
"g. c #678299",
"h. c #738994",
"j. c #5F84A1",
"k. c #6789A4",
"l. c #758BA4",
"z. c #7896A5",
"x. c #6B95B5",
"c. c #779AB4",
"v. c #7AA2B7",
"b. c #789EC2",
"n. c #7BA4C3",
"m. c #8D9290",
"M. c #95B390",
"N. c #A7A989",
"B. c #AAB886",
"V. c #B1B88D",
"C. c #ACB095",
"Z. c #B8B896",
"A. c #849AA8",
"S. c #95A3A5",
"D. c #95A9B6",
"F. c #A9B6AC",
"G. c #C3BE9C",
"H. c #C2BDA1",
"J. c #97C28F",
"K. c #ACC486",
"L. c #ACCA84",
"P. c #B3C58B",
"I. c #B3CC8B",
"U. c #B6C88C",
"Y. c #AECB95",
"T. c #BBC494",
"R. c #BAC697",
"E. c #BDCC93",
"W. c #BCD194",
"Q. c #B6C8A8",
"!. c #C2C89A",
"~. c #C4CC9C",
"^. c #C1D196",
"/. c #C4D39B",
"(. c #C9D39D",
"). c #CBC5A5",
"_. c #C9C7A6",
"`. c #CCCCA4",
"'. c #D5CCAB",
"]. c #D3CCAC",
"[. c #CBD3A3",
"{. c #CAD4A5",
"}. c #D2D4A6",
"|. c #D2D9A7",
" X c #D3D4AB",
".X c #DBD4AE",
"XX c #D5DAAB",
"oX c #DCD9AD",
"OX c #C9C7B8",
"+X c #D5CEB4",
"@X c #D6D3B2",
"#X c #DCD4B3",
"$X c #DCDBB3",
"%X c #DCD6B9",
"&X c #DEDBBA",
"*X c #EAD6AF",
"=X c #E0D8AF",
"-X c #E1D6B5",
";X c #E3DBB5",
":X c #EBD9B5",
">X c #E3D7BB",
",X c #E8D7B8",
"<X c #E4DCBB",
"1X c #EDDDBC",
"2X c #F1DEBC",
"3X c #E1E0B7",
"4X c #E6E0BC",
"5X c #EBE0BE",
"6X c #F2E0BF",
"7X c #8EB4D0",
"8X c #88B3D7",
"9X c #A8BAC7",
"0X c #B3BCC7",
"qX c #8FBDE3",
"wX c #98C3D4",
"eX c #B2C7CE",
"rX c #ACC9D6",
"tX c #9CD1F5",
"yX c #ACD7F1",
"uX c #B6E5F0",
"iX c #BBEAF9",
"pX c #D2D7CE",
"aX c #E5DDC2",
"sX c #EDDEC2",
"dX c #E6DECA",
"fX c #F0DFC1",
"gX c #E6E0C1",
"hX c #EEE1C4",
"jX c #EDE4CA",
"kX c #F2E1C3",
"lX c #F5E6CC",
"zX c #F5E8CE",
"xX c #F8E8CE",
"cX c #F4E6D1",
"vX c #F7E9D3",
"bX c #F8E9D2",
"nX c #F7EAD9",
"mX c #F8ECDA",
"MX c #C1DFE8",
"NX c #D2EEF4",
"BX c #CAF3FE",
"VX c #EAF4F0",
/* pixels */
"2X2XkXxXlXfXxXxXfXfXfXfXfXlXfXfXfXfXlX2X2X2X2X:XlX2X2XfX1XfX2X1X2X:X:X2X:X:X:X:X*X,X:XfX:X:X:X:X:X*X:X*X:X:X*X:X:X:X:X*X:X:X:X*X:X:XfX*X:X:X*X*X*X*X:X*X:X*X*X*X",
"kXxXkXxXxXfXlXfXfXxXlXfXlXfXlXfXlXfX2XlXlXkXlX2X:X2X2X1X2X2X1X1X:X:X:X1X2X1X:X:X*XfX:X:XfX:X:XfX2X2X:X:X*X:X,X:X:X:X1X:X,X:X:XfXfX:X*X,X:XfXfX:X,X*X:X:X*X*X*X*X",
"1XxXxXxXlXlXfXlXxXfXfXfXlXfXfXfXlXfXfXlX2X6XlXkXfXlXkXfXfXfX1X1X2X2X2X2X2X1XfX2X,X*X:X2X2X,X:X:X,X2X2X:X,X2X:X,X2X:X*X:XfX:X:X:X1X:X:X:X*X:X:X:X:X*X:X*X*X*X:X*X",
"2XlXxXfXlXlXnXlXfXxXxXfXfXlXfXlXlXkXkXkX6XkXfX2X2X:XlX2X2X2XfX1X2X:X2X:X1X1X1X:X2X2X2XfXfX:X:X:X:XfX:X:X:X1X2X2X:X2X2X:X:X:X:X:X:X:XfX*XfX*X:X*XfX*X*XfXfX:X*X*X",
"kXxXlXlXlXlXxXlXxXfXfXlXlXlXfXlXkXkXkXkXkXkXkXkX2X2XfXfX2XfXsX1XfX1X2X2X1XlX1X1X,XfX2X,X2XfX,XfX:XfXfX:X,X2X:X2X,X:XfX:XfXfX:X:X:X1X:XfX:X:X:X:X*X:X:X:X*X*X:X,X",
"fXxXlXlXbXlXlXlXlXlX2XkXfXxXfXlXkXxXlXkXkXkXkXkXlXkX2XkX2XlX1X1X2XfX1X2X1XsX1X1XfX,X2XfXfX,XfXfX,XfX:XfX:X2XfX:XfXfX:X:X:X,X:XfX1X:X2X,X1X:X:X:X*X:X*X:X:X:X:X*X",
"cXlXlXlXbXlXlXlXxXlXfXxXxXxXlXfXfXkXxXkXlXkXkXkX2XfXfXlXkX2XlX>X2X,X,X,XfX2X2X1XfXfX,XfXfX,XfXfX2XfX2X:X2X,XfX,XfX:XfX,X1X2X:XfXfXsXfX:X:X:X2X:X:X:X,X*X:X:X:X*X",
"xXlXxXlXcXlXlXbXxX2XxXfXlXxXfXxXxXkXxXlXkXkXkXkXkXlXkX2X2XdXVXnXnXVXpXpX+XsX,XaX,XfX,XfX,XfXfXfX2XfXsX,XfXfX2XfXfX,XfX:X1X1X2X:X:XfX:X1XfX:X1X:X*XfX*XfX*XfX:X*X",
"xXfXxXcXcXxXxXcXxXxXxXxXlXxXfXxXxXxXsXlXsXlX2XlXlXkXkXkXjXNXBXVXBXD.H d.a.m.P P s.s.s.M P m.H.sXdX-X1X1X1X6X1X2XfX:X1X1X1XsX1X1X2X:XfX1X1X1X:X:X:X:X,X2X:X:X:X:X",
"xXfXxXxXxXbXfXcXxXlXxXfXlXlXfXxXvXsXxXvXcXfXfXlXlXfXlXjXpXD.7XrXrXe * g.g.H S r @ $ % $ r V S.0X7XC.1X1XjX2X:X1XfXfX2X1X2XfX2X1X2XfXfX:X2X1XfX2X2X:X*X1X:X:X:X:X",
"xXxXxXbXxXfXcXxXxXxXxXxXxXxXxXxXvXxXbXfXkXkXlXlXfXkXjXkXgX7Xn.n.wXe * y.p.C d.rX9X9X0X0X0XrX0XD.z.m.>XjXsX1X1X2XfX2X1X1XfX1XfX,X:X:X2X:X1XfXfXfX:X:X*X:X:X:X:X:X",
"cXfXxXbXxXbXxXxXlXfXlXxXlXfXxXxXkXbXlXlXxXfXfX1XlXxXjXcXjXyXtXyXuXJ c % r C J qXyXtXyXyXqX7XA.s.a.m.:X:X6X2X1X5XsX:XfX1X1X1X2XfX2X:XfX2X:X:X:X:X2X2X2X:X:X:X:X:X",
"xXfXvXbXbXxXvXvXxXbXxXxXxXxXxXlXxXlXxXlXlXkXlXsXsXkXlXfXaXyXBXBXMXi.v O O w A A G J y.J A c r - - ;.:X,X5X5X6X1XfX1X1XfX1X1X2XsX2X1XfXfX:X2X:XfX2X:X2X:X:X:X:X:X",
"xXxXxXbXxXxXcXvXxXfXxXbXxXfXxXfXlXkXlXxXkX2XlXkXsXfXhXkX1XyXiXiXMXK V + O O % & & + % % % & r V m.F.,X:X:XgX1X:X2X:XfX1X2XsX2X1X1XfX:X:X2X2X:X:XfX:X2X:X:X:X*X:X",
"xXbXfXnXbXxXbXbXxXfXxXfXxXfXxXfXlXxXlXlXkX6XkXkXkXhX5XkX>XuXiXBXMXK S @ * c y.p.d.d.l.l.i.D.0XA.D.9X+X,X;X:X1X1X1X:X1X2XsXfXsXfXfXfXfX:X2X2X2X:X:X1X1X:X2X:X:X*X",
"xXfXxXnXfXbXbXnXxXbXxXxXxXxXxXbXxXlXbXlXkXkXkX<XkXhXsX5X,XuXBXBXiXi.V = i p.b.8XqXqXqXqXc.0XVX0Xl.z.S.#X1X1X;X:X<X1X:XsXfXfXfX1X2XfXfXfX:X2XfXfX:X2X2X,X:X:X:X:X",
"xXfXxXbXbXbXxXvXbXbXxXxXxXxXxXlXfXlXlXlX1XkXhX1XkXhX5XkX<XMXBXNXMXK c % p p.c.n.8X8X8Xd.d.l.VXpXd.d.P +X;X4X:X:X:X5X:X5X6X6XkX6XfX2XfXkX2X2X2X2X2X2X*X2X:X2X:X:X",
"xXnXxXxXxXnXbXfXxXxXxXlXlXxXlXlXlXlXxXlXfXxXhXhX5X5X5X4X*XMXBXBXiXK i % r t.f.f.p.d.d.t.d.d.MXMXi.y.V H.4X:X4X;X:X1X5X6X5X:XkX6XfX2XfX:XfX2X2X:X2X2XfX*X:X2X:X:X",
"xXbXbXbXvXvXbXbXxXxXkXxXxXlXlXxXxXlXlXlXkX5XlXkX5X:X;X4X=XMXiXiXiXi.c % w A i.g.p.y.i.Z d.t.Z c Z H S H.3X<X:X4X4X3X:X1X1XkX5X2X:XkXfXfX2XkXkXfX2X2X:XfX2X*X*X2X",
"xXfXbXnXbXxXxXbXbXxXbXlXlXxXlXlXbXxXxXlX6XhXhXhX5X<X:X4X;XpXtXtXuXK c y p J K f.y.p.y.Z t.t.r r Z G S '.;X<XoX=X<X<X6X5X;X-X2XkXfX2XlX:XfX:XfX2XfX2XfX:X1X1X:X2X",
"xXxXbXnXvXbXxXbXvXvXnXxXlXsXsXzXzXzXzXzXlXkXhX5XhX5X4X4X$XeXn.qXtXK c a p J i.f.d.a.i.V t.Z r c Z A S !.=X;X=X4X<X:X:X1X@X).1XsXfXkXfXfX2XsXfXfX2X:X:XfX:XfX*X:X",
"fXxXvXxXbXxXvXxXlXcXlXbXcXxXvXcXlX6XzXzXlX4XhX5X5X5X;X3X.XQ.g.p.v.y.t a u C D p.y.A A p A Z r y Z Z V Z.oX;X;X;X3X=X4X'.=XsX'.).fXfXfXkXfXkX:XfX2XfX2X2X2X2X2X:X",
"vXbXbXvXxXbXnXxXvXxXxXxXxXvXlXcXkXkXzXhXlXhXhX5XhX4X$X$X$X{.S.g.n.i.- e u A t.t.t.A G p A g e r d c S !.}.oXoXoX=X:X4X-X#X<X,X+X).fXfXfXfXfXfXkXfX2XfX2XfX:X*X:X",
"lXbXvXvXvXxXbXvXcXvXvXvXxXvXlXlXzXzXzXhX5X5X5X5X4X3XoXXXXX(.M.f.p.p.S @ & r i f r d Z r d r w e e r L }.}.XXoXoX;X4X<X1X-X1XfX-X'.fX:X2XlXfXfX2XfXfXfX:X2X2X2X*X",
"xXxXxXxXxXxXmXnXbXbXxXxXvXvXxXlXzXzX5XhXhX;X4X5X3X$X`.XX|.^.Y.g.p f.i.+ # 1 6 6 l z z l l - & d t N =.^.(.|.(.oXoX;X:X4X4XkX1XkX1XhXkXkXkXkXkXlXfX2X2XfX2X:X:X2X",
"lXlXbXxXbXxXmXnXmXxXnXlXvXvXcXlXlXhXjXzX&X;X5X4X(. X!.(.(.W.F.g.+ g.i., m &.N } ;.C.N.L :.L e t.z ' -.V.^.(.XX}.oX=X<X;XhX4XhX5XhXkX1XfX1XkXkXfXfXkXfX2XfX2X:X2X",
"lXxXbXbXnXxXnXxXmXlXlXlXcXcXgXjXhXzXzXgXhXhX4X3X$XXX[.(.W.I.Q.z.& c.h.; 4 0 3 ^ O.| ] 3 ~ :.- P N ^ ,.K.E.^.(.oXoXoXoXT.!.gX;X1XjX5X1XkXkX6XfXkXkXfXfXfX2X1X2X*X",
"lXxXbXvXbXxXbXbXxXxXxXlXlXlXcXvXjXjXjXzXgX4X3X$X$X|.(./.W.I.Y.z.& v.P ; : E E W T > T T 2 :.I Y U @.%.2.W.E.!.(.}.|.B.N >.;X;XgX1X<X1XkXkXhXkXfXkXfXfXfXfX2X1X2X",
"lXxXxXlXxXnXnXxXnXbXbXxXxXlXvXkXlXjXjX5X4X4XXX3XXX|.W.W.I.r.J.z.= A.K X 4 #.$.$.W /  .W ~ 5.7 S x %.&.r.r.E.^.T.!.}.~.4.~.<X:XhX5X<XsXkXfX2XfXlXfXkXlXsXfX2X1X2X",
"bXxXlXxXxXbXxXmXnXbXnXbXbXlXzXcXhXlXzX5X4X3X3XXX|./.W.W.L.q.J.z.* z.K X 3 #.$.$.0.9.0.8.) 5.1 k l ^ ,.3.L.L.U.-.} }.}.$X-X<X5X<XhX5XsX1XfXlXfXkXkXfXfXfXfXfX2X:X",
"lXbXbXbXbXxXxXbXbXbXnXbXxXvXxXkXjX5XgX5X3X$X$X|.{./.W.I.r.q.J.z.% z.J . > _ _ 9.9.9.9.0.q.w.1 s s ^ %.3.e.e.V.7.B.[.@X}..X$X;XgX5XhXkXkXkXkXlXfXfXfXfXkXkX2XkX2X",
"xXfXxXbXnXxXxXbXbXbXbXbXxXbXkXkXjXjXjX5X4X3X$X|./.W.W.L.e.q.M.h.% k.G . > _ _ 8.8.9.8.X.8.1.t s v ~ ' &.2.e.7.^.E.{.[.}.&XgX<X1X<XhXhXhXkXkXfXfXfXlXfXfXfXkX2X:X",
"xXxXbXmXvXvXbXbXnXbXbXbXvXvXzXjXzXhXjXgX4X3XXX|.{.W.I.w.w.X.+.z.% z.H X : / _ ( _ 9._ 8.9.&.t v m ~ 0 [ 3.3.K.K.E.~.`.@X~.N.'.,X>X5XkXkXjXkXkXkXfXfXfXfXlX2X2XkX",
"xXnXlXnXvXmXvXmXvXbXxXzXzXvXkXzXjXhXgX4X$X&XP.V.W.W.I.w.q.X.+.z.u z.H X : ~ / ( _ #._ #.@.[ t t s !  .X.q.2.5.E.P.{.}.!.!.:._.#XgX1X5XkX5XhXhXxXfXlXlXkX2X2X:X2X",
"xXxXxXvXmXbXmXbXbXlXzXbXvXzXjXzXzXzXjXgX_.XXo.-./.W.L.2.q. .+.v.u v.P ; < ! W / _ _ Q @.@.q 8 U q 9 ] | &.2.2.6.U.(.(.V.Z.!.V.).gX1XjX1X1XsXsXkX2XlXfXfXfX2XfX2X",
"xXxXbXbXbXvXbXbXxXzXvXlXzXvXcXzXzXjXjX&X$X$X[.~.W.I.K.w.1.X.+.v.u z.a.; < ~ T W Q Q Q #.@.^ I Y 5 2 9 0 [ | <.<.P.T.(. X@X@X).).<XhX1XsXfXlXkXkXkXkXfXlX2XlX2X2X",
"xXlXlXbXmXmXbXbXxXxXxXzXjXcXcXjXjXzXgX4X$XXXV.T.W.4.3.1.q.X.X.wXv.v.f.. , ! ! T R Q Q _ ) 4 6 t t 1 m  .~ | %.5.B.U.V.6.~.oX$X@X<X1XjX5X<XxXlXlXlXfXfXlXfXfX2X2X",
"lXbXvXbXbXvXmXvXvXlXxXzXjXzXjXlXzX4XjX4X<X`.-.B.W.| 1.1.X. . .O.wXyXD o . 2 2 > R E R Q 9 # - t t u v ] [ ,.2.5.N B.B.} Z.<X=X-XjX1XkXhX1XkXfXkXlXkXfXlXlXfX2X2X",
"xXnXvXxXvXvXvXvXvXkXbXvXcXjXcXjXzXjXjX3XV.V.{.(.Y.L.w.1.X.X. .` D z.k u o . % + o , : , # @ - y i t v { ....2.5.4.E.7.T.}.&X;X.XgX<XsXsXkXfXkXkXlXxXfXlXsXkXfX2X",
"xXbXlXvXvXzXvXbXbXxXbXcXvXcXcXjXjXzXgX4XR.B.(./.e.K.<.9 `  . .` a D h F k s u u , = = = i f C H J J H { ..1.5.5.7.E.Q.T.$X<X<XaX<X1XjXjXlXkXjXlXfXkXkXfXsXfXfXfX",
"bXbXvXnXbXbXbXvXvXxXxXvXcXlXlXjX5X3X_._.>.[.[./.L.e.3.[ |  . .~ a K D p.j.j.f.f.u.k u.f.f.f.p.i.G S Z { .. .,.5.P.R.P.N.{.&XgXgXhX1XjXgXkXlXkXkXfXfXfXbXkXfXkXfX",
"xXxXvXvXlXbXmXxXvXcXlXlXlXlXlXvXjX&XQ.:.T.[.R.T.U.I.L.2.9 ~ / ! a m.m.g.t.j.x.x.x.x.x.f.p.y.C v p p p { | ,.5.e.P.B.4.N.@X$X4X1XgX1XkXlXgXlXxXkXbXnXfXfXfXkXfXkX",
"lXlXbXvXbXbXnXbXvXcXzXlXzXkXcXgXzXzX[.' 4.Z.`.^.W.Y.K...2 ! W ! a S.D.A.j j t.t.u.h k k f p 7 8 c c v 9 9 ' ,.7.B.P.V.:.`.3X<X<XaX<XjX1XlXlXkXkXfXbXfXkXkXfXkXfX",
"xXbXbXnXnXbXnXbXvXkXcXxXxXlXjXjXhXzX@X4.[.T.(.(.W.w.5.9 2 !  .] a A.D.A.j j t.t.t.t.h h c c q U z c v m 0 ] 7.7.E.[.R.<.}.&X&X<XjXjXjXjXlXsXxXkXxXfXfXnXfXkXfXkX",
"bXvXvXbXbXvXvXvXlXzXxXvXkXcXcXcXcXlX4X<X<X$X{.U.P.I.K.] ~  .*.] t z.D.z.k h t.u.t.t.j k d t U %.I c v | 2.5.e.K.P.E.~.}.%X&X<XjXjX1XjXjXlXfXfXxXfXfXkXfXbXfXfXfX",
"lXbXbXbXmXbXnXnXvXxXlXvXvXlXcXcX%X<X<X4X&X$X_.| 0  .I.w.q.1.1.| t V z.g.A h t.u.t.t.j h a 8 U U U c i | | w.U.B.7.~.`.`.>.Z.;XgXaXsXlX1XlXlXxX2XnXfXxXkXfXfXkXfX",
"xXbXbXbXbXxXbXbXlXxXbXkXvXnXlXgXN.Z.gXaX<X$X{.| 0 ' 5.L.2.....2 , w i k g g h u.t.F j h i I I 5 l i v | 1.q.L.U.4.R.}.].4.Z.gXjX<XaX1XxXfXlXnXxXbXfXfXkX2XfXfX2X",
"bXlXbXnXbXxXxXbXnXvXbXnXzXlXlXlXaXdX&X<X<X&X$X5.~ ~ 5.K.[ < ' 9 < & w d g f h t.t.j g g a t a a y t m &.5.*.e.V.V.V.~.$X<X#X5XjXaX-XaXxXfXlXfXxXfXfXnXfXlXfXfXlX",
"lXlXvXnXmXvXxXvXbXmXvXxXbXxXlXsXC.%X#X-XaX$X}.-.9 ] 2.2.,.] ,.| N i w w d f j j F j f j g i w e r e 0 <.K.5.I.W.R.{. XoX<XaXgXdX@XsXgXlXlXlXfXxXkXlXkXkXfXfXfXfX",
"bXbXbXmXbXbXbXvXvXvXbXlXbXvXvXcXdX<XaX+X<X;X|.[.5.B.I.K.I.L.5.,.-.d.d.r * w i i d d u w w w y Z S S ' 2.1.P.R.[.{.E.E. X}./.kX+XaX1XhXfXxX1XkXxXfXkXfXxXlXfXfXfX",
"xXbXnXmXvXbXbXbXvXxXxXbXxXvXcXcX<X+X<X+XaXgX;X$X|.R.R.W.U.Y.5.1.O.h.9XD.u w w * * w w w f h.0X9Xl.O.O.2.1.e.^.[.{. X}..XR.!.<XdXlXjXgXxXsXlXkXkXlXkXkXlXfXfXfXfX",
"lXxXbXbXbXbXbXbXbXbXbXxXvXxXzXvXOXH.>X).gX<X@X$XB.N B.E.P.P.K.,.[ B d.c.k.u.j g d j A t.l.9XD.l.H o.<.2.[ ] 5./. X$X&X>X#X'.].Z.kXlXkXxXlXkX2XzXkXfXkXkXfX2XlXfX",
"vXnXnXbXmXbXbXbXbXbXxXxXvXxXxXzXlX>XaXcXjX<X@XXX1.| R.~.R.E.5.4.-.} m K v.qX8X8Xn.qXqXn.c.g.H m B O.:.5.[ 9 ' B.$X<X;X'.>XdX;X'.2XfXxXkXfXfXxXlXkXxXxXfXfXlXfXfX",
"xXbXvXmXbXbXbXbXvXxXxXxXxXvXcXlXcXcXsXcX_.Z.;X$X`.!.R.{./.R.V.B.<.o.n 6 c a.c.b.n.n.x.p.c - 1 n } :.B.B.5.' ] R. X$X[.{.>XsXdXkXlX2XkXkXxXfXfXxXfXxXkXfXlXfXlXfX",
"xXxXbXvXbXbXbXbXmXxXlXlXxXbXlXbXxXcXjXlX%X_.1X<X`._.!.N.4.R.R.B.4.B n 6 # @ % % & & % O X $ 7 M ' | B.<.6.P.P.{.{.%X(.I.$X>XN.sXlXlXfXlXlXfXfXfXbXxXfXkXfXfXfXfX",
"xXlXxXxXbXmXbXbXbXxXxXxXxXxXxXxXvXlXlXjXjX).N.>X#X<X$X_.`.E.P.V.:.} 7 n 6 $ X         @ $ o 7 N }  .O.B.{. X|.e./.<X&X@X>X'.>XxXxXxXxXfXlXfXxXfXfXkXkXfXfXlXfXfX",
"xXxXxXxXbXbXxXbXbXxXxXxXkXxXxXxXxXcXsXsXdX+XZ.].N.<X].B.!.2.7.T.B.4.=.N 7 6 $ @ @ X $ $ $ x n 7 o.B.R.T.}.[.oX$X&X;X%X`._.N.jXlXfXxXfXfXfXbXxXxXkXkXkXkX2X2XfXfX",
"xXxXxXxXxXbXxXnXbXbXxXxXxXxXxXcXcXvXsXdX+X1X<X`.Z.;XZ.N.`.o.!.Z.V.N.:.L L b x 6 - $ 1 5 x x B n o.B._.@X`.I.{.jXjXaX3XhX>X1X1XcXxXxXfXbXfXfXfXfX6XkXlXkX2XlXfXkX",
"xXxXxXxXbXxXbXxXbXbXxXlXxXxXxXzXcXsXcXxXaX>X1XaX%X).@X#X<X].}.X.5.C.N.>.} L M b b x x M 1 7 =.N.Z.Q.].@XK.I.gX;X-XjX1XhXlX1XsXxXxXfXxXfXfXfXfXlXkXkXfXfXlXfX2X:X",
"xXxXbXbXbXbXbXvXbXvXxXxXxXxXbXbXvXcXlXsXlXfXsXdXaX>X_.H. X<X XU.~.Z.G.4.] -.L L =.=.=.=.N } V.V.R.T.aX<X}. X;X1XgX1XkX1XlXlXlXsXfXlXlXxXxXfXxXfXkXkX2X2XlXfXlX2X",
"xXxXxXbXbXbXbXlXvXlXxXxXxXlXxXlXvXcXdXsXsXlXlXsXsXsX+X<X%X-X-X@X].H.).Z.Z.N.>.>.N.:.>.>.] B.H.).]._.].{.{.;X&XdX>X,XlXsX1XsXlXcXxXlXxXfXfXxXkXfXxXkXkXfXfXfXfXfX",
"lXxXvXbXnXmXxXbXvXcXxXxXxXxXxXlXcXsXsXcXcXlXsXsXsX,X,XjXsX1X>X>X%X+X%XZ.B N.H.:.} N.N.B...R.).].+X@X#X{.|.1X<XkXlXlX,XlXcX-X>XlXxXkXfXfXxXkXkXlXfXfX2XkXfXlX2X2X",
"xXxXxXvXmXxXxXlXvXvXxXvXxXcXvXxXcXsXxXcXcXfXlXsXaX,XaXZ.Z.%X#X+X#X-X>X].N.].).o.N Z.H.@X X+X%X%XaX&XgXjX1XaX1XkXaXcXfXfX2XdXsXvXkXfXfXxX2XxXkXkXkX2XkXfXfX2X1X1X",
"lXbXvXlXvXvXbXxXbXvXcXcXxXxXvXlXlXcXxXsXfXlXlXlX1XsX,XZ.:.,X<X-X-XsXC._.aXsX,X).G.+X-X<X#XaXaX<X#X$X#XjXkXjX<XaXlX,XcXfXxXfXsXnXlXlXfXfXfX2X2XkXkX2XkXfX2XfX2X1X",
"xXcXvXlXbXxXxXlXxXvXlXvXsXxXsXnXxXxXfXnXxXxXxXfXfXsXsXsXaXsXsXsX,X1X).%XsXjX,X-X%X>X<X-XhXhX1XsX>X#X<X4X4X<X:XhXxXlXfXfXlXlXvXfXvXfXxXfXxXfXfXfX2X2X2X2X2X2X2X2X",
"xXvXxXbXlXbXxXnXvXvXxXvXbXxXvXfXfXbXsXsXfXfXfXfXsXcXfXsXsX-X,XsXsXlXsXjXdXaXH.'.>X,X-XsX5X<XjX1XkXhX XhXkXhXkXlXfXfXxXcXxXfXfXlXvXfXfXxXfXcXfXfXlX6XkX2X2X2XfX:X",
"bXvXvXlXfXxXxXxXxXvXxXlXxXvXfXvXlXxXsXsXfXxXxXlXfXfXfXxXsXsXsXfXsXsX<XsXsXdX).dXsX%X%XfX5XhX X<X|.hX1XkXkXkXkXlXfXcXxXxXlXfXvXfXfXfXxXfXfXxXfXfXfXfX2X2X2X2X2X2X",
"cXvXvXvXxXxXxXxXxXxXlXlXfXxXbXxXcXxXxXvXfXxXxXfXfXbXH.sXcXfXfX,X1XlX1XsXlXsXlXsXsXsXsXlXhXkX}.sXhXkX1XjXkXkXkXkXsXsXxXfXfXlXfXvXfXxXfXfXfXfXfXfX2X2X2X:X2X2X2X:X",
"xXxXxXxXxXxXlXxXbXxXfXxXxXxXxXxXfXcXfXxXxXxXxXfXfXfX,XsXfXfXfX,XsXsXsXaXcXaXlXcX<XfXlXfXlXlXsXkXfXlXfX,XxXfXlXfXsXsXfXfXfXlXlXlXkXlXfXlXfXfXfXfXfX2X2X2X2X2X:X,X",
"xXxXkXxXxXxXlXfXxXxXxXxXlXxXfXfXfXfXfXxXxXfXfXxXfXfXfXlXcXfXsX-XsXsXlXkXsXlXlXsXfXfXkXlXlXfX1XcXlXfXfXfXkX<XfXlXfXlXfXlXfXfXfXfXxXfXfX2XfXfXfXfXfX2XfX2X2X2XfX1X",
"kXxXxXxXxXkXlXlXxXbXxXlXxXlXfXxXbXnXfXxXfXfXfXfXxXfXfXxXfX,XaXfX:XsXkXsXsXjXkXlX2XfXfX1XlXkXlXlXfXfXfXfXfXfXsXsXsX1XsXfXlXfXfXlXlXfXkX2XfXfXfXfXfX2X2X1X1X1X2X1X",
"kXxXxXxXxXxXkXkXfXxXlXlXfXlXxXxXfXfXfXxXfXxXfXlXfXfXlXfXfX2XfXfXkXsXlXfXdXsXlXlXfXlXlXfXkXkXkXfXlXfX2XlX2XfXlXlXlXfX,XlXfXfXfXlXlXfXlXfXfXfXfXfX:X2XfX1X2XfX1X1X",
"xXbXkXxXxXxXkX2XxXxXxX2XfXkXxXkXlXkX2XlXkXkX6XkXfXxXfXxXfX2XkX6XkXhXkXfX1XkXkXkXkX2X2XkXfXlXlXfXlXlXfXlXfXlXfXfXsXlXfXfXlXfXfXkXlXfX2XfXfXfXfX2X2X1X1X2X2X2X1X2X",
"kXxXbXkXkXkXxXlXxXkXxXxXlXlXxXfXfXkXxXkXxX6XkX6XfXfXfXfXfXfXkXlXkXsXfXlXlXkXkXkX6XkXlXlX2XfXfXlXsXfXfXfXlXfX2XsXfXfXfXfXfXlXlXfX2X2X2XlXfXfXfXfXfX2X1X1XfX1X:X1X",
"kXbXxXkXlXxXxXkXfXlXxXkXkXkXkXxXkXlXlX2XkX6X6X2XfXlXfXxX6XkX2XkXkXkX2XlXhX2XkXlX6XlX6XkXkXkXkXjXfXfXfXlX2X1XlX:XlX2XkX2XkX2X1XfXlX2X2X2XfXfX1X2X1X1X2X1X2X1XfX2X",
"kXkXxXkXxXkXkXlXkXxXxXkXkXfXlXkXkX2XkX2XlXkX2X2XfXfXlXfXlX2XkXkXkXkXkXjX6XjXjXlXkXkXkXkXlXkXlXkXlXlXfXfXlXfXfXlX1X2XfXlXfX1XkXlX2XfXfX2XfXfX:X1X2X2X1X1X2X:X2X:X",
"kXlXkXxXkX6XkX6XkXxXkXkXlXfXkXlXkX2XlXfXsXkXkXkX6X2X6XkX2X6XkX2XfXkXkXkXkXjXlXkX6XkXjXkX2XlX2XkXfXlXfXlX2XfXlX:X1X2XfX2XfXkX2XkXfXfXfXfXfX2X1X1X1X1XfX2X:X:X:X:X",
"kXkXkXxXkXxXkX2X2XxXkX6XlXkXkXkX6XlXkX2X1XlX6X2X2XkX2XfX6X6X2X2X2XfXkXkXlXkX2XkXkXkXkXfXjXkXsXkXfX2XsXfXfX1XfXfXfXfX2XfX2X1XkX1XlXfXfX2X2X2X2X1XfX:X:X:X2X:X:X:X",
"kXkXkXlXlXlXkXlXkXkXkXkXfXkXkX2X6XkXkXkXkX2X2XfXkXfX2XsXfX2XfX2X2XjX2XfX2X2XjXfXkXjXkX6XlXsX2X6XsXfXfXlXfXfXfX1XfX2X1X2X1X2XfX1X2X2X2X2X2X1X:XfX2X1X*X:X:X:X:X:X",
"kXlXkXkXkX2X6X6XlXfXlX2X6X2X2XfXkX2X1X2X1XkX2X1X1X2X2XlXsX2XlX2X2XkXfX2XkX2XfXlX2XkX2X2X2XkX2X2XsXfX2XsX2X1X2X1X2X1X1X1X1X1X2XfX2X2X2X2X2X2X1X:X1X*X*X:X:X2X:X:X"
};
