/* XPM */
static char *ground1681375480[] = {
/* columns rows colors chars-per-pixel */
"80 80 20 1 ",
"  c #E9D5AE",
". c #EAD7B2",
"X c #ECD9B5",
"o c #EEDCBB",
"O c #F0DBB7",
"+ c #F1DEBD",
"@ c #F3E0BF",
"# c #EFDEC1",
"$ c #F1DFC1",
"% c #EFE0C5",
"& c #F3E1C4",
"* c #F6E5CB",
"= c #F8E7CD",
"- c #F8E8CF",
"; c #F6E7D1",
": c #F8E7D0",
"> c #F7E8D2",
", c #F8E9D3",
"< c #F7E9D8",
"1 c #F8EBD9",
/* pixels */
"++&**#**$$&+&&+&@+%@@+oo&+++o+ooo..OoXXX..XoXX.XX.......X....... .#...    ...   ",
"&*&**#*$$*&$&&&$&%@&%@&ooo+o+ooo.O.ooo.X.oXX#X.#XoX...XXX.o.XX.##X ..##.....    ",
"+*****%**#$$&&&+*%&%@@%@$&@#$+ooOOooooooX.XoX.XXXoXXXoX.o..X#X..XXXX..... ..  . ",
"+**&**;*&**&&&&&&&&&@@%@+o&oo++o+Oooooo.oooo#XXXXoXXXooo.oo..XXXXX#.# ..#  ##...",
"&********&$&*&&&&&&&&@@@++$$++$o+oooo%ooooooooooX#oXXoXXX.#.##.X.oX#XX.X .... ..",
"&***;****&@&&*&*&*%&%&&&&@+&+&+o++ooo%ooooo##oo#.#XoXo#X##XX.X.#o.o.XXX. . .... ",
"****;*****&****$&&*&&&&&+&$&&o&#+ooo$+oo$oo##ooooooXoX#X#.#.oo.##o#XXXoX... ....",
"****;**;*@*&*=&**&*&&&@@&&&++&&+++&$#%o&+oo#oo$oo%%X##o##X#.ooo..#XooXXX.#.#.#. ",
"&&*;;**;=****=&***%*%&@*&&&&&&&@++++&#ooo++o@##%%+ooo+oo#XoooooooX$XooXX...oXX..",
"***-***;=**&**&=>%*>*&&**&&%&&%+&&+$&%&%+o#&o+#o+o+o%oOo##ooo#ooX$#Xoo#XOO.oX..X",
"**--**;*=**=**=*>*-%&@&&&&%&&%&%+&$&%&o&ooo&$o%&ooo%%oo+oooo#o#XOXoXoo$$o......X",
"***=*==**&*=*&=*%>***@&&**&*&*&@&$$$%&&++@&o%o&+O+oo@@o+#X#oooo#oX$OOXXXOoo....X",
"***-;*;;=-=***=**-***&&&%&*&&&%@&+%&#&#+o@o&o&#o++@o$#++$oo$ooo#oo$oOOOooXo..X.X",
"***-==;;*&**=&*&*&**&@*&%&&&&&&@++&&&%&oo+&%+%&o+oo+o%oo+o+oo#ooooXOoo.O#OoXX..X",
"***>**>>=&**=&******&@&&&&&*@&&&&&+%%*%%@o&%@%&&@o@ooo++oOo+#o##$#oOoooXOoo.X.X.",
"**->*>>>=-*==*****-*&&&&*&&&&&&@&+&&&&%*+@&%%&o+@o@o$&ooo++#$$$oo$$oOo#oXooXXXX.",
"**->>>*-,,-**=**&=**&&&&*&&*&&&&&+$*$#*$$$*$$$$$@+o@#%#++++++@%o$O$$OO$OOO.O.o..",
"*>*-*1*****=*==***>*&=&&&&&&@@&&&$$$**#$&$$$;;$$%+&@&&&o@++&%+&$$O$O$$OXO#$XOoO.",
"**-->>--*=&===****>*&&=*&&&&&&&&*&$*$*$*$*$*$;$;&+&o&%&&&++$o&++O$$$O$$$$OX$O..O",
"**-1>*->-=-**,=*-***&&**&&&&&&&=*&*$$**$$$$$*#$*@&&&&&oo&$@#&+$&$$$O$O$O$X#Xoo.o",
"*->1>---,,,==*==**--=**&**&*&*&**&&*$;***&&**$*$&&&&&&+&&+++%&#%$$$$O$$$OXX#X#..",
"*=;=-->-*>*-=*>=**=*=&=&**&*&&*&&&&&$**$&$$*$*$;&&&&&&&$&+&&@&$$$$$$$$O$O$$OoXo.",
"*--;-->->*=**,*>**-===**=*&*=&&&&&*****$*&&**$*$&&*%&$&++&&$&$$&$$$$$$$$$O$O#O..",
"*->;;->>->>>=,*>*-==&&&*=-&&=&&*&*&***$*$$***$<*&&&*$*$&&&&&%&&&$$O$$$$$$$$XoOO.",
"*===--1>,-=>,,==-,*=*@&*=*&**&*****&***&$=*<$*;*=$=$$=$$+&&&&*$*$$&&$$&&$oo$oo.O",
"**--,-1,1-,-,,>**=;>*&=*&-&&*&&&*******&***$**$*$$*$:$=$&+*&*$*#&&$$$$$$$$$o$oOo",
"**>>,*,-1**-,,,*=:,**=;**==*&*&&*&******;*<$$;$$$=$;=$$:&&&*#*$$&&$$$$$$$$$$OoO.",
"*-->--,,==-=**>,**>,****==&=**=*********$***;;,*=$:::$$$&&&&*$$*$&&&&$$$$+$$$Ooo",
"****-,>->,,*=*>*->;***&=>*********&&*;;&$:=*;<<$=:$:$:$$*$;$*$$*&&%&$$$&$$%$$ooo",
"--*=-,-1,,,;,,=-*=,*=**=>**=**&**=&**;*&=:=;;$<*:$$$<$$:$*$*#**$*&%$&&&&$$%$$$OO",
"*---,==>,>>,*,:*;*,==***>****&*****&*****$**$<;;:$:::$=$;$;$$#$*&&*&&&&$$$$$$O$o",
"-&=>,-=>,,>,=,**=>*-*=**>;******,****;*&=$**;<<<;::$;:$*$;$$;;;$%&&&&&$$$$$$$$oO",
">*>1>>,,>,>,,,=*-**>===**>**;;*,***>*,>*****;;>;****=$:$=$$:$:$:&&&*%$&$$$$$$+++",
"=,*,>,>1>-=*=-*>*=>=*>***;:*;***>**-*;;*******;****$=$$:$::$=$:$*&&*&$$*$&&$++O+",
"*=*,1,,,,*=,>>*,,>>>**=****;;*****&&*;;;:****;;;**$*$=$=$==$$$$:*$*&&%$&$&&$$+++",
"=*=>,>,,==,*;>>,,=,>*-**=**;**;*,*=**;>*****;;;<****==*$=$$:::$:**&&&*&&&&&&+$++",
"=*=,11,,===-*,>*>->**=*=:*=**,=;>;;;===*******;<*&*;***$$$$$$$$:*&*&&:*&&&%&&$++",
"*,>>,,,>>**,>>;:>*>===***:;=*;**>;*:**;:****,;$*=$**=$*$::::::$$:&**&&&&&&&&%$O+",
"*>>=>>>,,&,>,>,;:*>*&-*******;;;>;***;;;*;$*;;;;**$*;;$*::$;$:$$*%***&&&**%&%$$O",
"*-*,,*>,-*,>,>;;;=;;=&==**=*;;**;;*****;<,*;***;;*:***;*$:<$<::,*&***&&&&&%$%$++",
",,>,>;,,-==>,*==:*;,*===**=&*==****;;:*<;***$;;<;***:::$$<:$<:::*&;&&*&&$$$:$$$$",
"=*,>*:1=,>=**=*,::>,=&=*==>*=*******;,:<;***;*<;;;;;:<$::$;::$***$**%**&::$$$$$$",
"**,,>>,,>>==,*,*>,*;=*=&*>>>>&*,***=;;>>***=;*;;;;:*::$:$$<:*****%;$*:%&$:$$$$$$",
"=>,<<,,,>=>==;,>*,=>**==*>;=>&&-**;*;;<>***$**;;;;*::$<$::$$*;;$;;;**%*&:$$:$$$$",
"=;;,>,,>*,=>*,;>;;**,;;**=;*-*&**=:;;:>>=****;;,;:;*::$:<$$$;;*;;*;;:$$*$$$$:$$$",
"*>,,1>,,>=*,,*,>,==>:*=:*=*;-&*****;;>;;****::*;;$$*$::$$****$$****$**:$:$:$$$$$",
"*:,,,*>,*=-*,,*,;*=,==*,===*-*******;:,;&*=**::*<$::::$:::****;;;;**$*:*:$$$$$$$",
":*,,,==,,;,,=*=,:=*=**=;=>>=>**;===;;*>;****:;*,:::$$::$:$$**$*;***:$*$:$$:$$$$$",
"**,,,>=>,,,=>*=>>>==;*===>>=-*;>*;*;;;>;*=**,*;;$$<:=$,;*;=$::*<:*****$=$=$$$$$$",
">>,1>,,>>,:*;>>,>->=>&&>>=*;;*>****;;;;,:**;,**,<:<$*::;;$$=:$:;:&*$*$$=$$$:$$$$",
"=>,1,,-,>*=;*>>>-*==-**-*****;--***;;;;>;**,;**;;;<$*$**$*$$;:$<=***$=$$=$$=$$$$",
"*-,>*>,,,---,=*>1**->*-====&*>****>,*,:::**=*==*$<::;$;;::==$$$;=*&==$$=$$$$$$$$",
">,,,1,,-,,==-*=--**>>*===****=-**=::==*=:**:====,:******=;=$:;$$&&*&@&*&$::$$$$$",
"=>,1,,--,====,>=>;->==***&;**;>-*=**==******$***;<*;*=**$:$*$:::=&&&*$$*$=$$=$$$",
"*-,,,,,,1=**=-*-=;==>;&*&*-;=-*&&*;**:=***&**=**;::*$;**<=$=$=$:**&&&&&&==$$$$$$",
"-&--,,-,-==*===->===>&*=**--***&**=;==*=&*&=**;*;$;;:***;*;;:$*:===&@&*@$$$$$$$$",
"=*==,,-,--==&---===>=**=*==*&**&=**:***==**=$=;*;*<$:$*:;$;$:$::$=$$$=**$+&&+$$$",
"*====-=,,-=*=-=,>;=;==***&**-==*&******:$=**===::*:;:=*:====$=$;:=$:$$&$@&*@+&+@",
"*-==------**===->===**=;****-**&*&==*;**$=**===:;;;*$==$$:$=:$$==$*$$$$&&&$$&$oo",
"*=--,,->,,=*==--;>=*********=*&**=**;;=*=$*==$=$;;<:$=$*:$=$:==$$=*=*$*$&&++&$&+",
"===>>>>=,====*=*>>;*=**&*==**&&&***;;;**=$==$;;**<*<*$=;:$=$$$::***$+*&$&&$$%+++",
"*->>>1=>>-=*===,=**;***=*&&*********;;**&*$:*;**;$$*:$$::=$=;$$:=&$$*&&&$$+$&%o+",
"***,1==*>>*,*,>*;*=-=&***&*&*&**#****;*&**$:*;*;<*;;$*$=$;$$$:$<&&&*+*$&&+$$@ooo",
"*>,*>>>==>;>**,*=;=*&=**@*&=*&%&&****;*&$*:*$;**$<$*::$$;$;$:$$<*=$$$++&++$+@@Oo",
"=>>*-=-*->*;***>***>&=*&&&&***&@&&&**>&&;=*&=*&**&&=*&&&**#$**;$;$*$*$$$o@o+o+oo",
"*>==*-=,>;*;-*-*****&&&***&&*&&&&****;*&&&&*&**&**&*&&***$***$$*;$$*#*$$&@&oOo+o",
",>>*&==*--***-*;*******&&@&**&&&&&%*%;&*&&&&&=&*&&&&&&&&$****$;$$$*$$*$$@@+O+OoO",
">>>>=*=**-**&*******&**@@=&-*&&@&*&**%;%&&**&&&&*&&*&*&&*#*&#*$;$*$$$$++@+OO+oOo",
"==*=-**=>-&**-****&***&&&&&*&@&&&&*&;%*;&&&&=&*&&&&&*&*&#*$&&&**&&&&$$+$@ooOooOX",
"==&**==&-*****&&&%&**@&*&@@**&&&&&*&%**%&&@=-&&;*@&&&@*&$*$&&$#$*$$+$$+$&O+ooo+o",
"&====&***-****&***&*&&&&&&&**@&&@&*****;@&&&*&&*&&&&+&%&$$$$*$#&*$&++$++@ooooooo",
"&=*===@&&-*&&***&&&&@*&@@&*@&@@@@%*&%&*&&&&&*&&&&&@&@&&&*$$*$$&&&$&$+$++Oo@oo+oo",
"=-&==*&@*==@&&*&&&@&&&@@@&@*@+@@@%&&&&&&&@@&&&*&*&&&&&%&&&&%&%&&*$+$$#$ooooooooo",
"&*-&&&**=&==*%*&&&*%*@@+@&+&@@&%@&&&*&&%@&&&@&&&%&%&&&@%&o+@&&&%$++$$+o#$ooo@oXo",
"&=*&&==&&**@&&&*&&&@@+++@@%*@@@@@%@&%@&*@&@%%@&%&&@&+o&o&@@o@oo&$+++#+oooooooooO",
"&&=&=&&&&**&&&%&&@&@%&++@@&%%+@%&&%%@%%*&%&&&&&&%&&%&@%&#o#&@o&%$$++$+OooooooXoX",
"&&&=&@&@@*&&&%&&&@&%%@@@@+@@@@%++@%&&%&&@&%%@&+&&&@&##&oo+@o@%o&$$#$#+oooo+oXXOX",
"&&&=&=&@@*&@&&+&@%%@+%@oo@o@@@+++%@%&@@%%&@+%@%%&oo&$o$##@o@oo@o$$$$oooo+..OOX.X",
"&&&&&&&&&&&@@%@+@@@@@++@%+o%%++o+%+%@@%%@%@@%%++%@o%+@#o#ooooo@o++OOooXooo .XXXX",
"&&@@&@@@%&%@@+++%+ooo%ooooo@%+%oo@+o@o%&@%+o+@o+%oo%ooooooooooo#+O+ooooXo ...oX."
};
