/* XPM */
static char *result[] = {
/* columns rows colors chars-per-pixel */
"80 80 219 2 ",
"   c #3A3830",
".  c #452E39",
"X  c #025A02",
"o  c #1A580A",
"O  c #285119",
"+  c #066904",
"@  c #166B04",
"#  c #0A7607",
"$  c #147A06",
"%  c #1B6A12",
"&  c #316D14",
"*  c #324D27",
"=  c #36742A",
"-  c #52710B",
";  c #707709",
":  c #506E2E",
">  c #676F37",
",  c #687538",
"<  c #74723E",
"1  c #502A41",
"2  c #7A7644",
"3  c #8D760B",
"4  c #B1710E",
"5  c #F37B14",
"6  c #87774A",
"7  c #90784E",
"8  c #997953",
"9  c #AA7C5C",
"0  c #B97F64",
"q  c #0E840A",
"w  c #0F890B",
"e  c #198607",
"r  c #118D0C",
"t  c #1B8D0C",
"y  c #1C9207",
"u  c #13930E",
"i  c #1C930C",
"p  c #159A0F",
"a  c #1B9A0E",
"s  c #158611",
"d  c #189511",
"f  c #169D10",
"g  c #1A9D11",
"h  c #248C09",
"j  c #35850D",
"k  c #289706",
"l  c #24920A",
"z  c #2B950C",
"x  c #2C9A0B",
"c  c #339C0C",
"v  c #278A14",
"b  c #229312",
"n  c #2A9514",
"m  c #379614",
"M  c #1DA10F",
"N  c #17A211",
"B  c #19A412",
"V  c #1BAC13",
"C  c #1DB315",
"Z  c #1FB917",
"A  c #1FBC18",
"S  c #38A509",
"D  c #20B114",
"F  c #20BC17",
"G  c #20BE18",
"H  c #288E24",
"J  c #3A872E",
"K  c #448B17",
"L  c #42AB0C",
"P  c #47B808",
"I  c #47AC15",
"U  c #50AE1D",
"Y  c #4CB513",
"T  c #54BA18",
"R  c #448D39",
"E  c #52AA26",
"W  c #68BF2F",
"Q  c #20C417",
"!  c #22C419",
"~  c #25CB1B",
"^  c #26D21D",
"/  c #28D51E",
"(  c #29DA1F",
")  c #2BE41F",
"_  c #2BDE20",
"`  c #2DE421",
"'  c #2FEA23",
"]  c #30EE24",
"[  c #31F124",
"{  c #4EC205",
"}  c #54C909",
"|  c #58D404",
" . c #59C414",
".. c #63DA0B",
"X. c #65CE1A",
"o. c #67D615",
"O. c #72DD1C",
"+. c #6AE907",
"@. c #6EEA0D",
"#. c #75FA07",
"$. c #79FE06",
"%. c #7BFD0C",
"&. c #76E918",
"*. c #7BF317",
"=. c #7FFC12",
"-. c #72CC2E",
";. c #6DD324",
":. c #78D929",
">. c #7DEA21",
",. c #55924D",
"<. c #6B8C56",
"1. c #71A368",
"2. c #8C800B",
"3. c #B0850E",
"4. c #D48A11",
"5. c #F88714",
"6. c #EC9013",
"7. c #81FC15",
"8. c #85FB1B",
"9. c #84F81D",
"0. c #81DF2D",
"q. c #83E82C",
"w. c #86F623",
"e. c #8AFA24",
"r. c #8CF52B",
"t. c #8EF92A",
"y. c #92F72E",
"u. c #91F92E",
"i. c #8BE736",
"p. c #8EEC37",
"a. c #95F735",
"s. c #94F933",
"d. c #96F739",
"f. c #9AF53C",
"g. c #9AF83C",
"h. c #BA8165",
"j. c #84AD79",
"k. c #C9836D",
"l. c #CF8470",
"z. c #D98775",
"x. c #E5897C",
"c. c #99EB49",
"v. c #9EF543",
"b. c #9DF842",
"n. c #A1F546",
"m. c #A4F649",
"M. c #A4F44C",
"N. c #AEEF59",
"B. c #B1EE5D",
"V. c #A6F451",
"C. c #AAF254",
"Z. c #ADF35A",
"A. c #B0F25E",
"S. c #B5EE64",
"D. c #B6EF6B",
"F. c #BAED6D",
"G. c #B3F363",
"H. c #B8F26B",
"J. c #BEEC73",
"K. c #BCF273",
"L. c #C3EA78",
"P. c #C4EB7C",
"I. c #C2F17C",
"U. c #91BA8A",
"Y. c #EE8C81",
"T. c #F68D85",
"R. c #F98E87",
"E. c #FC8E88",
"W. c #9DC094",
"Q. c #ADCAA2",
"!. c #DDDE9F",
"~. c #CCE687",
"^. c #C6EC82",
"/. c #C9EA84",
"(. c #CDEB8B",
"). c #D0E98E",
"_. c #C8F186",
"`. c #D4E595",
"'. c #D2EB94",
"]. c #D1ED96",
"[. c #D6E69B",
"{. c #DAE59D",
"}. c #D5ED9A",
"|. c #D9EA9C",
" X c #CDF190",
".X c #C6DAB9",
"XX c #E3DCA7",
"oX c #EAD6AF",
"OX c #E5DDAC",
"+X c #E7DFB2",
"@X c #EBD9B4",
"#X c #EEDDBC",
"$X c #F1DEBB",
"%X c #DDE5A3",
"&X c #DCECA4",
"*X c #DEE5AB",
"=X c #DEEDAA",
"-X c #DFF0B2",
";X c #E1E3A5",
":X c #E3E3AB",
">X c #E1EBAD",
",X c #E6E3B2",
"<X c #EAE2B5",
"1X c #E5EBB3",
"2X c #ECE2BB",
"3X c #E8E9B8",
"4X c #ECEABC",
"5X c #F1E1BE",
"6X c #EFDFC2",
"7X c #EFE2C5",
"8X c #EDEBC3",
"9X c #F2E1C3",
"0X c #F1E9C5",
"qX c #F6E6CC",
"wX c #F5E9CC",
"eX c #F8E8CE",
"rX c #F7E9D3",
"tX c #F8E9D2",
"yX c #F8ECDA",
/* pixels */
"$X$X9XeXqX6XqXqX9X6X9X9X9XqX6X9X9X6X9X9X9X$X$X#XqX$X$X6X$X$X#X#X#X@X@X@X$X@X@X@X@X@X@X#X@X@X@X@X@X@XoX@X@X@XoX@X@X@X@XoX@XoX@X@XoX@X6X@X@X@XoXoXoXoX@XoXoXoXoXoX",
"9XeX9XeXqX6XqX6X9XqX9X9X9X9X9X9X9X7X6X9X9X9X9X$X#X#X$X#X$X#X#X#X@X@XOX@X#X#X@X@X@X#X@X@X6X#XoX6X@X6X@XoX@X@X@X@X@X@X#XoX@X#XoX6X6X@XoXoXoX6X6X@XoX@X@X@XoXoXoXoX",
"#XqXeXeXqXqX7XqXqX6X9X9X9XqX9X6XqX6X9X6X9X5X9X9X6X0X9X6X$X5X@XOX:XXXOXXXOX+X<X#X@X@X@X#X@X@X@X@X+X#X@X@X@X#X@XoX#XoX@X#X7X@X@X@X$X@X@X$X@X@XoXoX@XoX@XoXoXoXoXoX",
"$XqXeX7XqXqXrXqX9XqXqX9X9X9X9X9XqX9X9XqX9X5X9X9X$X#X9X@X,X,X;X!.{.{.{.{.{.%X%X!.OX+X#X#X6X@X+XOXOXOXXXOXOX@X#X$X@X#X$X@X@X@X@X@X@X@X6XoX6XoX@X@X6XoXoX6X6X@X@X@X",
"9XeXqXqXqXqXqXqXqX9X9X9XqX9X9XqX9X9XqX9X9X9X9X5X5X<X,X:X{.`.).~.~.P.P.P./.).~.`.!.!.OXOX+XOXOX%X`.[.`.`.!.!.XXoX@X@X6X@X6X6X@X@XoX6XoX6X@X$X@X@XoX@X@XoX@XoXoX@X",
"7XeXqXqXrXqXqXqXqX9X9X9X9XqX9XqX9XeX7X9X9X9X9X4X<X;X`.).P.P.L.F.S.S.S.S.S.D.F.J.L.P.).%X%X{.`.~.P.J.F.L.L.~.!.XX+X#X@X@X@X@X@X6X6XoX6XoX@X@X@X@XoX@XoX@X@X@X@XoX",
"qXqXqXqXrXqXqXqXqXqXqXqXqXqXqX9X9X9XqX0X9X9X<X:X`.(.L.H.A.C.C.V.N.c.C.M.M.M.c.C.C.N.F.L././.L.S.B.C.C.n.C.B.L.P.%X!.#X+X#X#X@X6X6X6X6X@X@X@X6X@X@X@X@XoXoX@X@XoX",
"qXqXqXqXrXqXqXrXqX9XqX9XqXeX9XqXeX9XqX9X9X2X;X).P.G.C.n.v.f.f.d.i.i.i.f.f.f.d.d.a.d.c.M.N.N.A.V.c.d.-.0.y.f.c.B.J.~.!.XX@X#X#X@XoX6X@X6X6X@X@X@XoX6X@X6X@X6X@XoX",
"9X9XqXtXrXqXqXrXqXqXqXqXqXtX9XqXeXqX7XqX,X*X(.I.Z.v.d.s.q.;.I m j b b n U :.t.t.w.w.e.y.a.f.f.d.s.X.s t  .e.y.d.V.S.P.`.OX@X#X#X$X@X6X$X$X$X@X@X@XoX@X@X@X@X@X@X",
"qXqXqXeXqXqXqXrXeXqXqX9XqXqX9XtXrX7XqX8X=X(.F.C.f.s.w.T z d Z / _ ` ` ^ C i I *.7.7.7.7.8.e.e.e.e.I F _ t ..X.:.a.c.B.J.`.OX#X#X@X6X6X@X$X$X6X$X$X$X@X6X@X@X@X@X",
"qXqXtXtXqXqXrXqXeXqXqXqXqXqXeXqXrXwX0X:X'.F.V.d.t.>.c g _ ' [ [ [ [ ' ! ! ^ B z @.7.%.7.*.P P *.8.L Q [ ! $ r h O.r.v.N.J.`.,X+X$X@X6X@X6X$X6X6X$XoXoXoX@X@X@X@X",
"qXqXqXqXqXqXqXqXqX9XqXtXqX9XtXqX7XwX3X}.J.C.d.u.q.c C ' [ ] [ [ [ ] B g G F / F h ..%.%.| u d P 7.{ V [ ] d G ~ h &.y.f.B./.[.#X#X@X6X@X@X@X@X@X@X6X6X@X@X@X@X@X",
"qXqXqXrXrXqXrXrXeXeXeXqXqXqXtXqXqX8X&X^.A.f.w.Y e $ _ [ [ ] [ ] [ / u ' [ ] ] ] ! h ..%.P Z ` a P +.k / [ G V [ G l O.a.V.J.`.OX#X$X6X$X$X@X@X$X6X@X6XoX@X@X@X@X",
"qXqXqXtXeXtXrXrXqX9XqXqXeX9XqX9X0X:X'.H.n.r.I N ( C V [ [ [ [ [ [ F C [ ] [ [ [ [ ! l +.P Z [ ` a k k q / ` r ~ [ A h -.c.F.~.:X@X$X@X$X$X6X@X$X6X@X6X@X@X@X@X@X",
"qXqXqXrXqXqXrXtXeX9XqXqXeX9XqXqX4X&XI.C.d.X.p ' [ ~ C [ ] [ ] [ [ G B [ [ [ [ ] [ [ Q k { y ` [ ] ^ B + e D ! u ~ [ N I v.S.).*X$X6X6X@X$X$X$X@X@X$X$XoX$XoX$XoX",
"qXqXtXrXqXrXrXtXeXtXqXeXeXqXqXqX3X'.H.n.r.c ~ [ [ ^ ) [ [ [ [ [ [ ' u ! [ [ [ [ [ [ ] Z k k N ) ] ( Q a | l _ d B _ b 0.M.D.).XX@X6X6X6X@X$X6X6X@X$X6X@X@X@X@X@X",
"qXqXeXrXeXrXqXwXtXtXtXqXqXeXqX4X%X_.Z.d.;.i ] [ [ [ [ [ [ [ ] ' ^ ) / r ~ [ [ [ [ [ [ [ Q y S y y # N a { M / u ) C T v.V.F.`.:X$X$X6X9X$X@X9X$X$X@XoX$XoX#XoX@X",
"qXrXqXeXqXrX0X0XqXqXqXqXqXeXqX3X|.I.V.s.Y F [ ] [ [ [ [ ] [ [ Z + # F ^ r Z ] [ [ [ [ [ [ Z S +.+.P V M S D / p ' a :.n.C.L.{.,X$X$X9X@X9X9X$X@X@X9X9X@X$X#X$XoX",
"qXqXeX0X8X8X4X8X4X0X8XwXeXqXqX3X'.H.n.r.z ( ( r B ) [ [ [ ] [ r X X X M / p p ( [ [ [ [ / V e +.$.| V D h B ) u / b q.f.C.L.`.<X@X9X6X9X$X$X9X9X9X$X@X9X$XoXoX$X",
"qXqXqX8X-X&X&X&X>X3X4X8X0XwX0X>X XA.g.>.i ` w X X q ) [ [ [ ] Q # ; & X B ' Q B Q ) [ ) r N # P $.+.y Q $ i ( r ~ k r.a.V.F.[.<X6X$X9X$X9X$X9X@X9X@X9X@X$X6XoX6X",
"qXwX8X-X]._.^._. X}.-X1X4X4X4X&XI.Z.g.;.B ` V C @ @ a ] [ [ [ ( - 6.6.2.# ^ [ ' / ( [ ) r ( ` p S $.S D Q / F V ` n 9.y.n.F.[.,X6X9X6X6X@X9X9X9X@X@X@X6X@X9XoX@X",
"qX8X-X XK.H.Z.Z.H.^.(.}.>X>X-X}.I.V.s.&.l / [ B 3 3.@ / [ [ [ A K 5.5.6.3 p [ [ [ [ [ [ Z p ` ` u | } V [ [ V Q ' z &.u.f.F.'.:X$X6X9X9X9X9X@X6X$X9X9X@X$X@X#X@X",
"0X4X&X_.G.v.E E c.H.K._.(.}.}. XG.n.t.e. .p _ j 4.5.- V [ [ [ V 3 5.4.4 6.j ) [ [ [ [ [ [ V p ` / y e B [ [ A Q [ a o.t.d.S.(.,X#X6X9X9X9X9X9X9X9X@X9X$X6X$XoXoX",
"qX3X].K.V.i.d N I c.Z.K.K._.K.K.Z.g.t.8.&.l ~ - 5 4 - u [ [ [ N ; 5 - @ 4.; ~ [ ) A V a N C u $ Q ( ~ N ) [ ~ Z [ C Y t.d.G.(.:X$X6X$X$X9X9X6X9X9X9X9X@X$X$X$XoX",
"8X1X(.G.n.q.b ` V n -.H.G.G.G.G.m.a.e.8. .B ~ ; 5.; o $ ' [ [ N - 5 3 - 5 3.N Z r p F ~ Q V q $ k p ^ ) / ] ` F [ ~ S t.b.G./.1X#X7X9X9X7X9X9X9X6X$X$X6X#X#XoX$X",
"4X%X_.Z.g.u.I C [ ~ d E V.M.b.b.p.w.e.8. .C ~ ; 5.4 3 j ' [ [ C o 4.5 5 5 3.# f ( [ [ [ [ [ ` V k P k p ~ ] [ / ' / c e.d.Z.(.*X4X9X7X6X6X9X9X9X9X6X6X$X6X#X$X$X",
"4X}.I.Z.d.q.U # A [ ` n c.g.g.-.v h O.8.Y Z ( - 5.5 4 $ ' [ [ ~ # ; 6.5.5.K V [ [ [ [ [ ] [ [ ] N P #.{ e r F ( [ _ z w.d.Z.P.%X2X9X9X9X9X9X6X6X6X9X9X9X$X$X$XoX",
"1X}.K.V.-.v B ! u d ~ b i.a.y.m ~ Z Y e.Y Z ` j 4.5.- a [ [ [ ' p e 2.4.- D [ [ [ ] [ [ [ [ [ [ ) y +.$...y V ( [ ( x e.s.V.J.&X<X9X9X9X9X9X9X9X9X$X6X6X6X$X#X#X",
">X_.G.-.b _ ] ! _ w u g ;.s.;.g [ Q I o.h w V d - - q Q [ [ [ [ ~ Z y $ Z ] [ [ [ [ [ ] [ [ [ [ [ V P $.$.P p ) [ ~ S 8.t.n.J.|.2X9X7X9X9X9X9X9X6X6X6X9X6X#X$X$X",
"=X_.Z.E V _ V # _ C f ! m t.T C [ C m i ! _ ~ Z p C Q ' [ [ [ [ ] ^ ~ ( [ [ ] [ [ [ [ [ ' [ [ [ [ ^ k $.$.+.D ] [ ~ S 8.w.v.D.'.3X9X7X9X9X9X9X9X9X9X6X9X9X9X$X@X",
"|._.Z.;.v h c e _ ~ f ` g o.T V [ B $ ~ [ [ [ [ Q u V ) [ [ [ [ [ [ [ [ [ [ [ [ ' [ [ [ [ [ [ [ [ ' y +.%.%.S _ [ ! P =.8.s.Z.(.OX9XeX9X9X9X9X9X6X9X6X9X9X@X9X#X",
"&XI.Z.s.w.&.h X N ' f Z ~ z Y g ' s $ ` [ [ [ ] u Q ^ / [ [ ' [ [ [ [ [ [ [ ' F u a Q ' [ [ [ ' [ [ p +.%.%.} V [ A P =.8.u.C.P.OX6X9X9XqX9X6X9X9X9X6X9X9X9X#X@X",
"=X^.Z.g.e.Y B r + ~ G + _ ! $ u ^ $ a ] [ [ ' ' p ~ [ ' ' ~ V [ [ [ [ [ ] [ [ V % 2 % V ' [ [ [ ' [ N X.%.%.@.b [ A P %.7.t.n.I.&X2X9XeX6X6X9X7X6X9X9X6X9X$X$X9X",
"-X XG.b.r.z ^ ! q # r r ^ _ r _ F z g ] [ [ ` ^ ~ w _ _ C r ^ [ [ ] [ [ [ [ ` v R Y.= ! ' [ [ [ [ [ N o.%.%.#.k ( Q S %.%.8.n.L.&X<X9XeX9X9X7XeX9X9X9X9X9X$X$X$X",
">X].K.m.>.d _ Q _ q ~ V _ Z C [ M Y a ] [ [ ! / [ _ C ~ ' ` [ [ [ [ [ [ [ ` d = 2 Y., ^ [ [ [ [ [ [ N ..%.%.#.S ^ ~ S %.=.8.d.H.|.:X8X8X9X7X7X9X9X9X9X9X9X$X$X$X",
"4X}.K.Z.q.b ' V C f ] G ^ Z Q [ D P x ^ [ ' V ' ' ' [ [ [ [ [ [ [ ] [ [ ( u : l.Y.T.2 ! [ [ [ [ [ ` d o.#.%.%.P Q ^ c #.%.8.s.Z.^.|.%X,X2XqX9X9X9X9XqX9X#X9X9X9X",
"0X=X_.G.p.b ' B # V [ ` ~ ~ C [ / l P g [ ~ C [ [ [ [ [ [ [ [ [ [ [ ` V # & 2 E.Y.2 : A [ ] [ [ [ V # d t S ..} V _ k #.%.7.e.b.Z.H._.'.:X8XqX9X9X9X7X9X9X9X$X$X",
"0X3X}.K.V.m ~ D L V [ ] ' ' A ` [ D L c A V ~ [ [ [ [ [ [ [ [ ` ^ V H & 8 l.Y.T.> ,.,.A [ [ [ [ ! u ^ ` _ Z i k B ` k #.%.%.=.e.d.v.Z.K.(.%X,X7X9X9X9X7X7X9X$X$X",
"0X8X=X_.G.-.t i o.l ` [ [ [ ' ' ] ` i  .l + p C Q ~ ~ Q A V g H ,.1.W.<.Y.R.Y.2 O 2 1.! [ [ [ ' f / [ [ [ [ ` w u ` i +.$.$.%.7.e.e.d.n.G.^.&X<XqXqX9XqX7X9X6X$X",
"wX0X1X}.I.Z.W U 9.Y a ` [ [ [ [ [ [ Q x o.b # # R 1.,.,.1.j.Q.Q.W.1.<.h.T.T.6 *   ,.,._ [ [ [ ~ V [ [ [ [ ' [ ^ u ' a +.$.%.%.%.=.=.e.s.b.G.^.%X2X9X7X7X7X9X9X6X",
"rXwX8X1X}.K.H.V.g.s.T i C ^ ' [ [ [ [ B P *.Y $ = Q..XU.1.W.j.= : h.Y.R.T.0 * 1 . = J ' [ [ [ A ~ [ [ [ [ [ ] ` u ` g | %.$.%.%.%.7.7.8.t.b.G./.%X2X5XrX9X6X9X9X",
"wXwXwX8X=X&X XK.Z.V.g.:.U z e V ^ ` [ ` i o.9.&.L R J & 7 7 , , x.R.T.T.Y.:   1 1 O f [ ] [ [ A _ [ [ ] ] ] [ ` u ` N } %.%.%.7.7.7.=.7.e.s.v.H.}.3X2X9X9X9X$X6X",
"eXqXrXwX8X8X-X}. XH.Z.m.g.t. .$ r V ~ [ ~ h &.8.e.;.= h.R.h.2 z.R.T.T.R.9 * 1 1 . X ! [ [ [ ] A _ [ [ [ [ [ [ ' u ` C e x S T ..9.8.8.7.7.e.s.M.J.&X@X5X6X9X6X9X",
"eXrXtXyXyXwX8X8X-X}._.G.V.g.s.;.c t B ( [ G k &.*.m h.R.z.: k.R.T.T.T.Y.:   1   = s ' [ ] ] ] A ` [ [ ] [ [ ] ] u ' G f / ! V i n T >.7.7.8.e.b.G.(.:XqX6X9X9X9X",
"wXrXrXyXrXrXrXwX0X4X}. XK.G.b.d.e.O.L t ~ [ C c L 2 R.R.6 7 R.T.T.T.T.0 * .   <.R ! [ [ [ ^ ` _ ` [ [ [ [ [ ] ~ u ` ~ B [ [ [ ] ^ N n O.e.7.e.t.n.J.[.2XeX7X6X6X",
"wXtXtXtXyXrXyXrXrX0X4X>X}.K.G.b.d.t.8.+.l C [ B & z.R.x.> z.T.T.T.T.T.2   1 = ,.V [ [ [ ( ! [ [ ] ] ] [ [ ] B q q ] ^ p ] [ [ [ [ [ ! l O.8.7.e.b.G.'.,X2X6X9X9X",
"qXtXtXtXtXwXrXrXwXwXwX4X-X&X_.H.M.s.8.=.+.k C Q < T.Y.h.< Y.T.T.T.T.x.: . . o N ' [ [ [ C _ [ _ [ [ [ [ [ ~ B ~ p ] ( p ] [ [ [ [ [ [ G z *.7.e.s.M.P.%X2X9X6X9X",
"tXqXtXyXtXwXwXrXtXrXrXrX0X-X&X XH.m.t.=.%.+.k $ h.E.R.6 h.R.T.T.T.R.x.O   + A [ [ [ [ ^ C [ _ ^ [ [ ] [ [ G ~ ^ f ] ` p ( [ [ ] [ [ [ [ N  .7.7.e.v.K.[.2X$X9X6X",
"qXeXtXtXtXrXeXyXrXrXrXeXrX0X4X>X XG.g.7.%.#.| & z.T.T.6 k.T.T.T.T.R.z.% N ) [ ' [ ] [ V ^ _ F ] [ [ [ [ [ ~ ^ ~ V [ ' f ^ [ [ [ [ [ [ [ _ l *.=.9.s.Z.(.:X9X6X9X",
"tXtXtXyXrXrXtXtXrXtXrXeXrXeXwX8X=XI.n.e.%.%.+.: T.T.T.< l.R.T.T.R.R.z.v ' [ [ [ [ [ ' B ' V ^ ] ] ] [ ] [ _ ~ ` ` [ [ N ! [ [ [ [ ] ] [ [ g } =.7.t.M.(.:X7X9X6X",
"qXyXyXyXyXrXtXtXrXqXeXrXqXrXrXwX-X_.Z.t.=.%.| 2 R.T.T.6 z.R.T.T.T.T.x.J ' [ [ [ ] [ ~ V / V ] ] ~ ' [ [ [ ' ' [ ' [ [ Z Z [ [ [ [ [ [ [ [ ! S =.=.e.v.I.%X2X$X9X",
"eXeXtXrXeXtXtXtXyXeXeXeXyXeXqXrX8X].G.s.7.%.{ 6 R.T.T.7 x.T.T.T.T.T.Y., Q [ [ [ [ [ V ! F ~ _ _ ~ ~ ] ] ` [ [ [ [ [ [ ~ f [ [ [ [ ] [ [ [ ' i @.=.e.b.F.{.2X9X6X",
"eXyXtXyXyXtXyXeXtXrXeXeXeXqXeXwX8X}.H.g.e.=.P 8 R.T.R.h.z.T.T.T.T.T.R.0 b [ [ [ [ ] g / f _ F ] ` C ] ' D ' [ [ [ ] ] _ p ` ] [ [ ] [ ] [ [ V } 7.9.b.D.{.2X6X9X",
"eXeXtXyXtXtXeXtXtXeXeXeXeXrXyXeX8X&XI.m.e.7.P 7 R.T.R.l.x.T.T.R.T.T.R.x.: / [ [ [ ~ B ! V _ F [ ] D ~ ] ! Z ' [ [ [ ] ' u _ [ [ [ [ [ [ [ [ Z L 7.e.f.D.&X2X9X6X",
"qXrXtXtXyXtXyXtXyXtXqXqXeXeX9XrX0X-X_.V.u.8.} 6 R.T.T.T.T.T.T.T.R.T.R.R.7 Z [ [ ] N F B _ C ^ [ [ ( f ~ Q V ! ' [ ] [ [ V Q [ [ ] [ [ [ [ [ ~ S 7.e.f.F.{.2X2X6X",
"eX9XrXtXtXtXeXtXtXeXeXeXeXeXeXtXwX1X XG.s.e..., T.T.T.T.T.T.T.T.T.T.R.R.h.b [ [ ^ u ~ p ` V ` [ [ [ ! p C f $ _ [ [ ] [ Q g [ [ [ [ [ [ [ [ _ z 7.r.v.J.%X2X6X9X",
"eXqXeXeXtXtXeXyXeXeXeXeX9XtXeXtXwX4X}.H.n.t.&.K z.T.T.T.T.T.T.T.T.T.T.R.k.b ] ] f G f Q _ f ] [ [ [ [ A r f $ w _ [ [ [ ` u ` [ [ [ [ [ [ [ _ z *.t.n.L.{.2X9X9X",
"qXeXeXeXeXtXeXtXtXtXeXqXwXtXqXtXrX0X>XI.V.s.e.L 8 E.T.T.T.T.T.T.T.T.R.R.9 g [ F f ~ u ' Z C [ ] [ [ [ [ _ N r # r _ [ ] [ f ! [ [ ' [ [ [ [ _ z 8.u.M.P.%X9X$X9X",
"qXtXqXeXtXtXtXeXtXtXeXqXeXeXeXtXrX0X1X'.G.b.u.&.: k.T.T.T.T.T.T.T.R.T.R.< Q ~ r ^ u ! [ f ~ [ [ [ [ [ ' ' [ ' ' G r ~ ] [ G V [ [ [ [ [ [ [ / S 9.u.V./.:X2X$X$X",
"qXeXtXtXtXtXeXrXtXtXeXqXeXeXeXtXrXrX4X&XI.Z.d.t...= 0 T.E.E.z.x.R.T.R.l.& Z r ^ Z N [ ` u ` ] [ [ [ [ [ [ [ [ [ [ ~ r B _ ~ u ] [ [ [ [ [ [ ! S 9.a.C./.,X9X9X$X",
"eXeXeXtXrXrXrXqXtXeXqXqXeXqXeXqXtXrXwX3X'.I.V.s.e.o.m > 9 l.9 : 2 9 8 & # u ( ^ r _ [ ~ f [ [ [ [ [ [ [ [ [ [ [ [ [ ` Z u s p ' [ [ [ [ [ [ D P e.d.A.).,X2X6X6X",
"qXtXrXtXrXyXeXyXtXtXqXqXeXeXtXtXeXqXwX8X>X'.H.V.s.e.*.} S j % + + # $ f ~ [ ^ w ~ [ [ C C [ [ [ ' [ [ [ ' ] [ [ [ [ [ [ ' _ ' ' [ [ ' [ [ ' l O.e.f.S.`.<X9X#X$X",
"qXeXqXtXyXeXeXeXtXtXeXyXqXtXtXqXtXqXeXwX4X;X'.K.V.s.8.7.%.+.e B ~ ` [ [ _ V w ~ [ [ ' f _ ' [ [ [ [ [ ' Q ` [ [ [ [ [ [ [ [ [ [ [ [ ' [ [ ~ c 9.u.m.L.%X<X#X#X#X",
"qXtXtXqXrXrXrXeXeXtXtXtXqXqXtXqXeXeXeXqX0X4X>X'.F.V.u.8.=.%.S # u V V p r V _ [ [ [ ^ u ' [ [ [ ' [ [ ! Z [ [ [ [ [ [ [ [ ' [ [ [ [ [ [ ' a o.9.s.C.^.;X5X5X$X#X",
"eXrXeXqXeXeXeXeXtXrXqXrXqXqXqXrXqXqXqXrX9XqX9X,X`.F.n.e.7.%.} B ^ F Z ~ ` ] [ [ [ ] f G [ [ [ ] [ [ ` f _ [ [ [ [ [ ] [ ] [ ] [ [ [ ] [ G c 9.t.v.H.).,X$X5X#X#X",
"eXrXeXeXqXrXeXrXtXrXqXrXqXqXtXqXqXqXqXqX9X9X9X9X1X'.A.s.8.%.+.y ) [ ] [ [ ] ] ] [ Z p ] [ [ [ [ [ [ ^ f [ [ [ ] [ [ [ [ [ [ [ [ [ ] [ _ i @.9.s.Z.P.;X@X$X$X$X$X",
"rXrXrXeX9XqXeXeXtXeXqXqXqXtXqXrXqXqXqXqXqXqXqX9X2X{.P.V.t.7.%.} u ) [ [ [ [ [ ] V r _ ] [ ] [ [ [ [ Z Z [ [ [ [ [ ] ] [ [ [ [ [ [ [ ] d P 8.t.n.F.`.<X@X$X$X#X$X",
"rXrXrXyXeXeXqXqXqXtXqXqX9XqXqXqXqXqXqXqX9XqXqX9X5X4X'.H.g.9.%.#.P e F ^ / ~ D r B ` [ ] [ [ ] [ [ ' u / [ [ [ ] [ [ [ [ ] [ ] [ [ ] V S 7.9.d.N./.;X@X$X$X#X$X@X",
"eXtXeXqXrXeXqXeXrXtX9XqXqXtXqXqXqXqX9XeXqXqX9XqX9X5X:X_.Z.y.8.=.$.P + u u f V / ] [ [ [ [ [ [ [ [ ! p ] [ [ [ ] [ [ [ [ [ [ [ ] ] B c 7.8.y.V.L.{.+X$X$X#X#X$X@X",
"eXqX9XeXeXeXqX9XeXqXqXqXqXqX9X9X9XqX9XeXeX9X9XeX9X5X<X>XI.V.y.8.7.%.S V ] [ [ [ [ [ [ [ ] [ [ [ ] p ~ [ [ [ [ [ [ [ [ ] ] [ [ ) M c *.9.y.n.F.`.@X$X$X#X#X#X$X#X",
"9XtXqXeXqX9XeXeXqXtXqXqXqXqX9XqXqXeX9XrX9X9X9X9X0X9X9X4X}.L.M.a.9.8.&.c C ' [ [ [ [ [ [ [ [ [ [ ! a ] ] [ ] [ [ [ [ [ [ [ ] Q t P 9.9.y.v.H.).;X$X$X#X#X#X#X#X6X",
"9XeXeXeXeXeX9X9X9XtXqX9XqXqXqXqX9X9X9X9X6XqX9X9X9X9XqX5X<X{.L.C.g.u.8.&.c p ^ ' [ [ [ [ [ [ [ ( r ^ [ [ [ [ [ [ [ [ ] _ G i x o.w.t.a.m.S.~.;X<X@X$X9X#X$X6X#X#X",
"eXtX9XeXtXeX9X$XeXeXeX9X9X9XqXqX9X9X9X9X9X9X5X9X5X9X9XqX5X<X{.P.G.M.a.t.w. .n a Z ~ ( ) ` / F q Z ' ] ] ] ' ) ( ! V a h S X.w.u.d.n.C.F.(.*X<X#X#X#X#X#X#X#X#X#X",
"9XeXtX9X9X9XeXqXeX9XeXeXqX9XqX9X9X9XqXqXeX5X9X9X9X9X$X9X9X5X2X;X(.J.Z.v.a.e.*.X.L c l t l l k e i a a g p y l l S P o.*.9.t.d.n.C.S.P.`.;X<X#X6X6X#X#X#X9X#X@X#X",
"9XeXeX9X9XtXtX9X9XeXeX$X9X9X9XqXqX9X9X9X9X$X$X$X9X5X9XqX5X9X5X2X:X[.^.D.C.f.a.t.e.9.9.&.&.%.=.*.&...o. .X.O.&.*.8.8.9.w.s.f.C.D.P.~.{.:X#X#X#X$X#X#X#X#X#X#X#X$X",
"9XqXeX9XtX9X9X9X9XeXeX9XqX9X6XqX9X9X9X9X9X9X6X$X9X5X9XqX9X5X5X9X4X2X%X(.L.G.V.v.d.s.t.t.e.9.e.9.e.t.u.s.a.s.s.s.y.s.a.n.C.S.P.'.%X:X<X$X6X$X$X#X#X#X#X#X#X@X#X@X",
"9XqX9XeX9X9X9X9X9XqX9XqX9X9X9X9X9X9X9X9X7X9X9X5X9X$X9X9X9X9X9X$X$X5X2X,X%X(.^.D.A.C.M.n.f.f.d.d.g.n.n.C.V.V.C.V.C.C.A.F.P.'.{.,X<X5X6X6X6X$X#X#X#X$X$X#X@X@X$X@X",
"9X9X9XeX9XeX9X9X9XqX9X$X9X9X9X9X9X9X9X9X$X9X9X#X$X9X#X9X9X5X$X5X6X7X9X7X2X:X%X[.(./.P.F.F.S.D.D.H.L.L.P.P././.^./.~.~.[.{.XX<X#X5X6X9X6X#X$X#X#X$X@XoX$X$X#X@X#X",
"9X9X9X9X9X9X9X9X9X9XqX9X9X9X9X$X$X9X9X9X9X6X$X9X7X$X#X9X9X$X9X$X$X9X$X6X5X4X2X3X:X:X{.{.[.[.`.`.[.{.{.*XXX:X*X%X:X:X:XOX@X2X5X#X$X$X$X$X#X#X#X#X#X#XoX@X@X@X@X@X",
"9XqX9X9XqX9X9X$X9X9X9X9X9X$X9X$X9X$X$X$X#X9X$X#X#X#X#X9X7X6X9X#X$X9X6X$X9X#X7X9X2X2X<X<X<X<X,X<X2X,X@X7X#X@X<X#X@X@X#X#X#X#X#X6X$X$X$X$X#X#X#X@X#XoX@X@XoX$X@X@X"
};
