/* XPM */
static char *result[] = {
/* columns rows colors chars-per-pixel */
"80 80 256 2 ",
"   c black",
".  c #010101",
"X  c #020202",
"o  c gray1",
"O  c #040404",
"+  c gray2",
"@  c #060606",
"#  c #070707",
"$  c gray3",
"%  c #090909",
"&  c gray4",
"*  c #0B0B0B",
"=  c #0C0C0C",
"-  c gray5",
";  c #0E0E0E",
":  c gray6",
">  c #101010",
",  c #111111",
"<  c gray7",
"1  c #131313",
"2  c gray8",
"3  c #151515",
"4  c #161616",
"5  c gray9",
"6  c #181818",
"7  c #191919",
"8  c gray10",
"9  c #1B1B1B",
"0  c gray11",
"q  c #1D1D1D",
"w  c #1E1E1E",
"e  c gray12",
"r  c #202020",
"t  c gray13",
"y  c #222222",
"u  c #232323",
"i  c gray14",
"p  c #252525",
"a  c gray15",
"s  c #272727",
"d  c #282828",
"f  c gray16",
"g  c #2A2A2A",
"h  c gray17",
"j  c #2C2C2C",
"k  c #2D2D2D",
"l  c gray18",
"z  c #2F2F2F",
"x  c gray19",
"c  c #313131",
"v  c #323232",
"b  c gray20",
"n  c #343434",
"m  c #353535",
"M  c gray21",
"N  c #373737",
"B  c gray22",
"V  c #393939",
"C  c #3A3A3A",
"Z  c gray23",
"A  c #3C3C3C",
"S  c gray24",
"D  c #3E3E3E",
"F  c #3F3F3F",
"G  c gray25",
"H  c #414141",
"J  c gray26",
"K  c #434343",
"L  c #444444",
"P  c gray27",
"I  c #464646",
"U  c gray28",
"Y  c #484848",
"T  c #494949",
"R  c gray29",
"E  c #4B4B4B",
"W  c #4C4C4C",
"Q  c gray30",
"!  c #4E4E4E",
"~  c gray31",
"^  c #505050",
"/  c #515151",
"(  c gray32",
")  c #535353",
"_  c gray33",
"`  c #555555",
"'  c #565656",
"]  c gray34",
"[  c #585858",
"{  c gray35",
"}  c #5A5A5A",
"|  c #5B5B5B",
" . c gray36",
".. c #5D5D5D",
"X. c gray37",
"o. c #5F5F5F",
"O. c #606060",
"+. c gray38",
"@. c #626262",
"#. c gray39",
"$. c #646464",
"%. c #656565",
"&. c gray40",
"*. c #676767",
"=. c #686868",
"-. c DimGray",
";. c #6A6A6A",
":. c gray42",
">. c #6C6C6C",
",. c #6D6D6D",
"<. c gray43",
"1. c #6F6F6F",
"2. c gray44",
"3. c #717171",
"4. c #727272",
"5. c gray45",
"6. c #747474",
"7. c gray46",
"8. c #767676",
"9. c #777777",
"0. c gray47",
"q. c #797979",
"w. c gray48",
"e. c #7B7B7B",
"r. c #7C7C7C",
"t. c gray49",
"y. c #7E7E7E",
"u. c gray50",
"i. c #808080",
"p. c #818181",
"a. c gray51",
"s. c #838383",
"d. c #848484",
"f. c gray52",
"g. c #868686",
"h. c gray53",
"j. c #888888",
"k. c #898989",
"l. c gray54",
"z. c #8B8B8B",
"x. c gray55",
"c. c #8D8D8D",
"v. c #8E8E8E",
"b. c gray56",
"n. c #909090",
"m. c gray57",
"M. c #929292",
"N. c #939393",
"B. c gray58",
"V. c #959595",
"C. c gray59",
"Z. c #979797",
"A. c #989898",
"S. c gray60",
"D. c #9A9A9A",
"F. c #9B9B9B",
"G. c gray61",
"H. c #9D9D9D",
"J. c gray62",
"K. c #9F9F9F",
"L. c #A0A0A0",
"P. c gray63",
"I. c #A2A2A2",
"U. c gray64",
"Y. c #A4A4A4",
"T. c #A5A5A5",
"R. c gray65",
"E. c #A7A7A7",
"W. c gray66",
"Q. c #A9A9A9",
"!. c #AAAAAA",
"~. c gray67",
"^. c #ACACAC",
"/. c gray68",
"(. c #AEAEAE",
"). c #AFAFAF",
"_. c gray69",
"`. c #B1B1B1",
"'. c #B2B2B2",
"]. c gray70",
"[. c #B4B4B4",
"{. c gray71",
"}. c #B6B6B6",
"|. c #B7B7B7",
" X c gray72",
".X c #B9B9B9",
"XX c gray73",
"oX c #BBBBBB",
"OX c #BCBCBC",
"+X c gray74",
"@X c gray",
"#X c gray75",
"$X c #C0C0C0",
"%X c #C1C1C1",
"&X c gray76",
"*X c #C3C3C3",
"=X c gray77",
"-X c #C5C5C5",
";X c #C6C6C6",
":X c gray78",
">X c #C8C8C8",
",X c gray79",
"<X c #CACACA",
"1X c #CBCBCB",
"2X c gray80",
"3X c #CDCDCD",
"4X c #CECECE",
"5X c gray81",
"6X c #D0D0D0",
"7X c gray82",
"8X c #D2D2D2",
"9X c LightGray",
"0X c gray83",
"qX c #D5D5D5",
"wX c gray84",
"eX c #D7D7D7",
"rX c #D8D8D8",
"tX c gray85",
"yX c #DADADA",
"uX c gray86",
"iX c gainsboro",
"pX c #DDDDDD",
"aX c gray87",
"sX c #DFDFDF",
"dX c gray88",
"fX c #E1E1E1",
"gX c #E2E2E2",
"hX c gray89",
"jX c #E4E4E4",
"kX c gray90",
"lX c #E6E6E6",
"zX c #E7E7E7",
"xX c gray91",
"cX c #E9E9E9",
"vX c #EAEAEA",
"bX c gray92",
"nX c #ECECEC",
"mX c gray93",
"MX c #EEEEEE",
"NX c #EFEFEF",
"BX c gray94",
"VX c #F1F1F1",
"CX c gray95",
"ZX c #F3F3F3",
"AX c #F4F4F4",
"SX c gray96",
"DX c #F6F6F6",
"FX c gray97",
"GX c #F8F8F8",
"HX c #F9F9F9",
"JX c gray98",
"KX c #FBFBFB",
"LX c gray99",
"PX c #FDFDFD",
"IX c #FEFEFE",
"UX c white",
/* pixels */
"; l c c v v v v v v u 6 6 6 6 6 6 6 7 3 : l c c v v v v v v u 6 6 6 6 6 6 7 5 = h c c v v v v v v s 7 6 6 6 6 6 6 6 = i c c v v v v v v v s 7 6 6 6 6 6 6 7 5 # ",
"l F.P.j.u.u.u.u.u.u.%./ ( ( ( ( ( ( ( U v F.P.j.u.u.u.u.u.u.%./ ( ( ( ( ( ( Q s b.Y.v.u.u.u.u.u.i.,.( ( ( ( ( ( ( / f q.T.B.i.u.u.u.u.u.i.,.( ( ( ( ( ( ( ( ! 5 ",
"c P.x.o.' ] ] ] ] ] ' ' ' ' ' ' ' ' ] E m I.x.o.' ] ] ] ] ] ' ' ' ' ' ' ' ' / f Z.C.&.' ] ] ] ] ] ] ' ' ' ' ' ' ' ` h u.K.,.] ] ] ] ] ] ] ] ' ' ' ' ' ' ' ' ( 7 ",
"c j.o.' ' ' ' ' ' ' ' ' ' ' ' ' ' ' ' Y m k.o.' ' ' ' ' ' ' ' ' ' ' ' ' ' ' / g h.&.' ' ' ' ' ' ' ' ' ' ' ' ' ' ' ` h 0.1.' ' ' ' ' ' ' ' ' ' ' ' ' ' ' ' ' ( 7 ",
"v u.' ' ' ' ' ' ' ' ' ' ' ' ' ' ' ' ` M v i.' ' ' ' ' ' ' ' ' ' ' ' ' ' ' ' W d p.} ' ' ' ' ' ' ' ' ' ' ' ' ' ' ' ( d 7.+.` ' ' ' ' ' ' ' ' ' ' ' ' ' ' ' ' Q 4 ",
"v u.] ' ' ' ' ' ' ' ' ' ' ' ' ' ' ' ` n c i.] ' ' ' ' ' ' ' ' ' ' ' ' ' ' ' F t p.| ' ' ' ' ' ' ' ' ' ' ' ' ' ' ' U w 7.@.` ' ' ' ' ' ' ' ' ' ' ' ' ' ' ' ' G ; ",
"u %.' ' ' ' ' ' ' ' ' ' ' ' ' ' ' ' ` m i %.' ' ' ' ' ' ' ' ' ' ' ' ' ' ' ' D 8 @.[ ' ' ' ' ' ' ' ' ' ' ' ' ' ' ' U 9 ' | ' ' ' ' ' ' ' ' ' ' ' ' ' ' ' ' ' F ; ",
"6 / ' ' ' ' ' ' ' ' ' ' ' ' ' ' ' ' ) n 9 / ' ' ' ' ' ' ' ' ' ' ' ' ' ' ' ` S 4 E ] ' ' ' ' ' ' ' ' ' ' ' ' ' ' ' P 7 F ] ' ' ' ' ' ' ' ' ' ' ' ' ' ' ' ' ` S ; ",
"6 ( ' ' ' ' ' ' ' ' ' ' ' ' ' ' ' ( G k 9 ( ' ' ' ' ' ' ' ' ' ' ' ' ' ' _ L v 4 W ] ' ' ' ' ' ' ' ' ' ' ' ' ' ' T M 7 G ] ' ' ' ' ' ' ' ' ' ' ' ' ' ' ' _ L v ; ",
"6 / ' ` ` ` ` ` ` ` Q U U U U U U F b h 9 / ' ` ` ` ` ` ' ~ U U U U U U J n z 4 E ' ` ` ` ` ` ` ' ~ U U U U U P m v 6 F ' ` ` ` ` ` ` ' ( Y U U U U U U J n x ; ",
", a s s s s s s s s q 8 q q q q q q q 8 < a s s s s s s s r 7 0 q q q q q q 0 , u s s s s s s s s r 7 0 q q q q q q < e d s s s s s s s u 7 0 0 q q q q q q 0 ; ",
"*.J F F F F F F F F e X.p.r.8.8.8.8.8.8.=.J F F F F F F G p E p.t.8.8.8.8.8.8.2.I F F F F F F F G p E p.t.8.8.8.8.8.6.Q F F F F F F F G l N u.u.9.8.8.8.8.8.8.8.",
"o.[ ] ] ] ] ] ] ] ' h p.~.a.@.@.@.@.@.@.o.[ ] ] ] ] ] ] [ n &.(.x.$.@.@.@.@.@.O.[ ] ] ] ] ] ] ] [ n &.(.x.$.@.@.@.@.+.} ] ] ] ] ] ] ] [ F E ^.Z.*.+.@.@.@.@.@.@.",
"' ' ' ' ' ' ' ' ' ` h r.a.} ` ` ` ` ` ` ' ' ' ' ' ' ' ' ] b #.c...` ` ` ` ` ` ` ' ' ' ' ' ' ' ' ] b #.c...` ` ` ` ` ` ' ' ' ' ' ' ' ' ] F R B.$.` ` ` ` ` ` ` ` ",
"' ' ' ' ' ' ' ' ' ` h 7.@.` ' ' ' ' ' ' ' ' ' ' ' ' ' ' ' b +.<.` ' ' ' ' ' ' ' ' ' ' ' ' ' ' ' ' b +.<.` ' ' ' ' ' ' ' ' ' ' ' ' ' ' ] D R 0.` ' ' ' ' ' ' ' ' ",
"' ' ' ' ' ' ' ' ' R t 8.@.` ' ' ' ' ' ' ' ' ' ' ' ' ' ' ^ p +.,.` ' ' ' ' ' ' ' ' ' ' ' ' ' ' ' ^ p +.,.` ' ' ' ' ' ' ' ' ' ' ' ' ' ' _ l T 0.` ' ' ' ' ' ' ' ' ",
"' ' ' ' ' ' ' ' ' U q 8.@.` ' ' ' ' ' ' ' ' ' ' ' ' ' ' ! r +.<.` ' ' ' ' ' ' ' ' ' ' ' ' ' ' ' ! r +.<.` ' ' ' ' ' ' ' ' ' ' ' ' ' ' ) d T q.` ' ' ' ' ' ' ' ' ",
"' ' ' ' ' ' ' ' ' U 9 o...' ' ' ' ' ' ' ' ' ' ' ' ' ' ' ! r ! $.` ' ' ' ' ' ' ' ' ' ' ' ' ' ' ' ! r ! $.` ' ' ' ' ' ' ' ' ' ' ' ' ' ' ) f C ;.' ' ' ' ' ' ' ' ' ",
"' ' ' ' ' ' ' ' ^ A 7 G ] ' ' ' ' ' ' ' ' ' ' ' ' ' ' ) G e b ] ' ' ' ' ' ' ' ' ' ' ' ' ' ' ' ) G e b ] ' ' ' ' ' ' ' ' ' ' ' ' ' ' ` P s a ' ' ' ' ' ' ' ' ' ' ",
") ) ) ) ) ) ) ^ S b 7 H [ ] ] ] ] ] ] ] ) ) ) ) ) ) ( H m e b [ ] ] ] ] ] ] ] _ ) ) ) ) ) ) ( H m e b [ ] ] ] ] ] ] ` ) ) ) ) ) ) ) P M a a ] ] ] ] ] ] ] ] ] _ ",
"g d d d d d d d p i , l G F F F F F G S j d d d d d d p p 3 p G F F F F F F D z d d d d d d d p p 3 p G F F F F F F b d d d d d d d a p 8 9 F F F F F F F F D x ",
"4 P T Y Y Y Y Y T T I z s s s s s s s y 6 P T Y Y Y Y T T Y n s s s s s s s p 1 G T T Y Y Y Y T T Y n s s s s s s s 2 M R T Y Y Y Y Y T Y C s s s s s s s s p - ",
"x I.E.d.0.0.0.0.0.0.9.X.` ` ` ` ` ` ' R n U.E.d.0.0.0.0.0.0.$.` ` ` ` ` ` ' ^ d C.!.z.0.0.0.0.0.0.0.$.` ` ` ` ` ` ` g y.^.B.q.0.0.0.0.0.q.;.' ` ` ` ` ` ` ' / 6 ",
"c J.p.} ` ` ` ` ` ` ` ' ' ' ' ' ' ' ] R m K.p.} ` ` ` ` ` ` ' ' ' ' ' ' ' ' / f V.c.o.` ` ` ` ` ` ` ' ' ' ' ' ' ' ` h u.Z.$.` ` ` ` ` ` ` ' ' ' ' ' ' ' ' ' ( 6 ",
"v s.} ' ' ' ' ' ' ' ' ' ' ' ' ' ' ' ] R M d.} ' ' ' ' ' ' ' ' ' ' ' ' ' ' ' / g d.O.` ' ' ' ' ' ' ' ' ' ' ' ' ' ' ` j 9.*.` ' ' ' ' ' ' ' ' ' ' ' ' ' ' ' ' ( 7 ",
"v u.] ' ' ' ' ' ' ' ' ' ' ' ' ' ' ' ' H n i.] ' ' ' ' ' ' ' ' ' ' ' ' ' ' ' T a p.| ' ' ' ' ' ' ' ' ' ' ' ' ' ' ' ~ a 7.+.` ' ' ' ' ' ' ' ' ' ' ' ' ' ' ' ' R 2 ",
"v i.] ' ' ' ' ' ' ' ' ' ' ' ' ' ' ' ` n v i.] ' ' ' ' ' ' ' ' ' ' ' ' ' ' ' D t a.| ' ' ' ' ' ' ' ' ' ' ' ' ' ' ' U q 8.@.` ' ' ' ' ' ' ' ' ' ' ' ' ' ' ' ' F ; ",
"z w.] ' ' ' ' ' ' ' ' ' ' ' ' ' ' ' ` n z e.] ' ' ' ' ' ' ' ' ' ' ' ' ' ' ' D e r.} ' ' ' ' ' ' ' ' ' ' ' ' ' ' ' U q 2.O.` ' ' ' ' ' ' ' ' ' ' ' ' ' ' ' ' F ; ",
"9 ] ' ' ' ' ' ' ' ' ' ' ' ' ' ' ' ' ^ b w ] ' ' ' ' ' ' ' ' ' ' ' ' ' ' ' ) Z 5 ( ] ' ' ' ' ' ' ' ' ' ' ' ' ' ' _ J 7 I [ ' ' ' ' ' ' ' ' ' ' ' ' ' ' ' ' ) Z ; ",
"6 ( ' ' ' ' ' ' ' ' ' ' ' ' ' ' ' ^ S k 9 ( ' ' ' ' ' ' ' ' ' ' ' ' ' ' ) H c 4 W ] ' ' ' ' ' ' ' ' ' ' ' ' ' ` L n 7 G ] ' ' ' ' ' ' ' ' ' ' ' ' ' ' ' ) H c ; ",
"4 ! ( ( ( ( ( ( ( ( U D D D D D D B x f 7 Q ( ( ( ( ( ( ( ( U D D D D D C x k 2 U ( ( ( ( ( ( ( ( R F D D D D A c z 4 A ) ( ( ( ( ( ( ( Q G D D D D D D C x k - ",
"5 e e e e e e e e e 3 9 r r t t t t t e 9 i e e e e e e e e 3 9 r r t t t t r 8 p r e e e e e e e 6 6 r r t t t t t 8 u t e e e e e e r 8 3 e r t t t t t t r 6 ",
"5.! E E E E E E E E p 2.D.b.a.a.a.a.a.a.s.:.W E E E E E E E p 2.D.b.a.a.a.a.a.s.6.! E E E E E E W k { S.M.s.a.a.a.a.a.r./ E E E E E E W N H Z.V.d.a.a.a.a.a.a.a.",
"} ] ] ] ] ] ] ] ] ' h i.R.9.| | | | | | | { ] ] ] ] ] ] ] ' h i.R.9.| | | | | | } ] ] ] ] ] ] ] [ n &.~.p...| | | | | } ] ] ] ] ] ] ] [ F E !.c.O.| | | | | | | ",
"' ' ' ' ' ' ' ' ' ` h w.0.] ' ' ' ' ' ' ' ' ' ' ' ' ' ' ' ` h w.0.] ' ' ' ' ' ' ' ' ' ' ' ' ' ' ] b #.d.{ ' ' ' ' ' ' ' ' ' ' ' ' ' ' ] F R z.o.` ' ' ' ' ' ' ' ",
"' ' ' ' ' ' ' ' ' _ g 7.+.` ' ' ' ' ' ' ' ' ' ' ' ' ' ' ' _ g 7.+.` ' ' ' ' ' ' ' ' ' ' ' ' ' ' ' c +.,.` ' ' ' ' ' ' ' ' ' ' ' ' ' ' ] A R 0.` ' ' ' ' ' ' ' ' ",
"' ' ' ' ' ' ' ' ' Y e 8.@.` ' ' ' ' ' ' ' ' ' ' ' ' ' ' ' Y e 8.@.` ' ' ' ' ' ' ' ' ' ' ' ' ' ' ~ u +.,.` ' ' ' ' ' ' ' ' ' ' ' ' ' ' ) h T 0.` ' ' ' ' ' ' ' ' ",
"' ' ' ' ' ' ' ' ' U q 7.@.` ' ' ' ' ' ' ' ' ' ' ' ' ' ' ' U q 7.@.` ' ' ' ' ' ' ' ' ' ' ' ' ' ' ! r +.,.` ' ' ' ' ' ' ' ' ' ' ' ' ' ' ) d Y 0.` ' ' ' ' ' ' ' ' ",
"' ' ' ' ' ' ' ' ' I 9 ' | ' ' ' ' ' ' ' ' ' ' ' ' ' ' ' ' I 9 ' | ' ' ' ' ' ' ' ' ' ' ' ' ' ' ' Q r I O.' ' ' ' ' ' ' ' ' ' ' ' ' ' ' ( f n $.' ' ' ' ' ' ' ' ' ",
"' ' ' ' ' ' ' ' Q V 7 F ] ' ' ' ' ' ' ' ' ' ' ' ' ' ' ' Q V 7 F ] ' ' ' ' ' ' ' ' ' ' ' ' ' ' / S e v ] ' ' ' ' ' ' ' ' ' ' ' ' ' ' ) H a p ` ' ' ' ' ' ' ' ' ' ",
"! ! ! ! ! ! ! E V b 7 G [ ] ] ] ] ] ] ' ~ ! ! ! ! ! ! E V b 7 G [ ] ] ] ] ] ' ^ ! ! ! ! ! ! Q S n e b [ ] ] ] ] ] ] ' ^ ! ! ! ! ! ! G m p a ' ] ] ] ] ] ] ] ' ^ ",
"r r r r r r r r e e : a n b b b b b b c y r r r r r r r e e : a n b b b b b v i r r r r r r r e e < w b b b b b b b v i r r r r r r e e 5 5 b b b b b b b b v p ",
"q o.%.@.+.+.+.+.+.+.+. .B b b b b b b j e O.%.@.+.+.+.+.+.+.I v b b b b b b x 6 { %.#.+.+.+.+.+.+.Q b b b b b b b b x 6 { %.#.+.+.+.+.+.+.! b b b b b b b b x : ",
"c T.R.e.,.,.,.,.,.,.,.:.{ ] ] ] ] ] [ E m T.R.e.,.,.,.,.,.,.O.] ] ] ] ] ] ] ( f S.~.d.,.,.,.,.,.<.$.] ] ] ] ] ] ] ] ( f S.~.d.,.,.,.,.,.<.$.] ] ] ] ] ] ] ] ) 7 ",
"c S.8.] ` ` ` ` ` ` ` ` ' ' ' ' ' ' ] R m D.8.] ` ` ` ` ` ` ' ' ' ' ' ' ' ' / f M.p.{ ` ` ` ` ` ` ` ' ' ' ' ' ' ' ' / f M.p.{ ` ` ` ` ` ` ` ' ' ' ' ' ' ' ' ( 6 ",
"v p.[ ' ' ' ' ' ' ' ' ' ' ' ' ' ' ' ] R M p.[ ' ' ' ' ' ' ' ' ' ' ' ' ' ' ' / g a...' ' ' ' ' ' ' ' ' ' ' ' ' ' ' ' / g a...' ' ' ' ' ' ' ' ' ' ' ' ' ' ' ' ( 6 ",
"v u.] ' ' ' ' ' ' ' ' ' ' ' ' ' ' ' ' S b i.] ' ' ' ' ' ' ' ' ' ' ' ' ' ' ' I i p.| ' ' ' ' ' ' ' ' ' ' ' ' ' ' ' ' I i p.| ' ' ' ' ' ' ' ' ' ' ' ' ' ' ' ' U < ",
"v i.] ' ' ' ' ' ' ' ' ' ' ' ' ' ' ' ` n v p.] ' ' ' ' ' ' ' ' ' ' ' ' ' ' ' D t a.| ' ' ' ' ' ' ' ' ' ' ' ' ' ' ' ' D t a.| ' ' ' ' ' ' ' ' ' ' ' ' ' ' ' ' F ; ",
"h 6.] ' ' ' ' ' ' ' ' ' ' ' ' ' ' ' ` n j 6.] ' ' ' ' ' ' ' ' ' ' ' ' ' ' ' D w 6.} ' ' ' ' ' ' ' ' ' ' ' ' ' ' ' ' D w 6.} ' ' ' ' ' ' ' ' ' ' ' ' ' ' ' ' F ; ",
"8 _ ' ' ' ' ' ' ' ' ' ' ' ' ' ' ' ' Q c 0 _ ' ' ' ' ' ' ' ' ' ' ' ' ' ' ' ^ V 5 ! ] ' ' ' ' ' ' ' ' ' ' ' ' ' ' ' ^ V 5 ! ] ' ' ' ' ' ' ' ' ' ' ' ' ' ' ' ^ V ; ",
"7 ( ] ] ] ] ] ] ] ] ' ` ` ` ` ` ` Q C j 0 ( ] ] ] ] ] ] ] ] ' ` ` ` ` ` ^ S c 5 W ] ] ] ] ] ] ] ] ' ` ` ` ` ` ` ^ S c 5 W ] ] ] ] ] ] ] ' ` ` ` ` ` ` ` ^ S c : ",
"2 U W E E E E E E E F n n n n n n x h p 4 U W E E E E E E E F n n n n n v h f < J W E E E E E E W K m n n n n n v h f < J W E E E E E W I M n n n n n n v h f * ",
"f r e e e e e e e e < p c c c c c v v c z j e e e e e e e e < p c c c c c v v j t e e e e e e e r 3 e c c c c c c v v j t e e e e e e r 6 6 x c c c c c c v v l ",
"5._ ( ( ( ( ( ( ( / d q.R.B.i.i.i.i.i.i.p.,.( ( ( ( ( ( ( / d q.R.B.i.i.i.i.i.e.] / ( ( ( ( ( ( ( x O.R.D.a.i.i.i.i.i.e.] / ( ( ( ( ( ) Z U U.K.d.i.i.i.i.i.i.i.",
"] ' ' ' ' ' ' ' ' ` h u.K.,.] ] ] ] ] ] ] ] ' ' ' ' ' ' ' ` h u.K.,.] ] ] ] ] ] ' ' ' ' ' ' ' ' ] b %.R.8.[ ] ] ] ] ] ] ' ' ' ' ' ' ' ] F E E.p.} ] ] ] ] ] ] ] ",
"' ' ' ' ' ' ' ' ' ` h 0.1.' ' ' ' ' ' ' ' ' ' ' ' ' ' ' ' ` h 0.1.' ' ' ' ' ' ' ' ' ' ' ' ' ' ' ] n @.e.] ' ' ' ' ' ' ' ' ' ' ' ' ' ' ] F R d.} ' ' ' ' ' ' ' ' ",
"' ' ' ' ' ' ' ' ' ( d 7.+.` ' ' ' ' ' ' ' ' ' ' ' ' ' ' ' ( d 7.+.` ' ' ' ' ' ' ' ' ' ' ' ' ' ' ` z +.,.` ' ' ' ' ' ' ' ' ' ' ' ' ' ' ' V R 0.` ' ' ' ' ' ' ' ' ",
"' ' ' ' ' ' ' ' ' U w 8.@.` ' ' ' ' ' ' ' ' ' ' ' ' ' ' ' U w 8.@.` ' ' ' ' ' ' ' ' ' ' ' ' ' ' ! t +.,.` ' ' ' ' ' ' ' ' ' ' ' ' ' ' ) f Y 0.` ' ' ' ' ' ' ' ' ",
"' ' ' ' ' ' ' ' ' U q 8.@.` ' ' ' ' ' ' ' ' ' ' ' ' ' ' ' U q 8.@.` ' ' ' ' ' ' ' ' ' ' ' ' ' ' ! r +.,.` ' ' ' ' ' ' ' ' ' ' ' ' ' ' ) d T q.` ' ' ' ' ' ' ' ' ",
"' ' ' ' ' ' ' ' ' P q 2.O.` ' ' ' ' ' ' ' ' ' ' ' ' ' ' ' P q 2.O.` ' ' ' ' ' ' ' ' ' ' ' ' ' ' E r  .:.` ' ' ' ' ' ' ' ' ' ' ' ' ' ' ^ d L 6.` ' ' ' ' ' ' ' ' ",
"' ' ' ' ' ' ' ' T M 7 I [ ' ' ' ' ' ' ' ' ' ' ' ' ' ' ' T M 7 I [ ' ' ' ' ' ' ' ' ' ' ' ' ' ' Q V w B { ' ' ' ' ' ' ' ' ' ' ' ' ' ' ^ S p g { ' ' ' ' ' ' ' ' ' ",
"U U U U U U U P m v 6 F ' ` ` ` ` ` ' _ T U U U U U U P m v 6 F ' ` ` ` ` ` ' _ T U U U U U I B b w v ' ` ` ` ` ` ` ' _ T U U U U U A b p p ` ` ` ` ` ` ` ` ` E ",
"5 0 0 q q q q q q q < e d s s s s s s p 7 0 0 q q q q q q q < e d s s s s s s p 7 0 0 q q q q q q 2 8 d s s s s s s s p 7 0 0 q q q q q 5 4 s s s s s s s s a 8 ",
"i q.i.0.8.8.8.8.8.8.6.Q F F F F F F G N s q.i.0.8.8.8.8.8.8.6.Q F F F F F F G N s q.i.0.8.8.8.8.8.8.' F F F F F F F G N s q.i.0.8.8.8.8.8.O.G F F F F F F G A < ",
"c T.K.1.+.@.@.@.@.@.+.} ] ] ] ] ] ] [ E M R.K.1.+.@.@.@.@.@.+.} ] ] ] ] ] ] [ E M R.K.1.+.@.@.@.@.@.| ] ] ] ] ] ] ] [ E M R.K.1.+.@.@.@.@...] ] ] ] ] ] ] ] ) 7 ",
"c B.,.' ` ` ` ` ` ` ` ' ' ' ' ' ' ' ] R m B.,.' ` ` ` ` ` ` ` ' ' ' ' ' ' ' ] R m B.,.' ` ` ` ` ` ` ' ' ' ' ' ' ' ' ] R m B.,.' ` ` ` ` ` ' ' ' ' ' ' ' ' ' ( 6 ",
"v i.] ' ' ' ' ' ' ' ' ' ' ' ' ' ' ' ' S b i.] ' ' ' ' ' ' ' ' ' ' ' ' ' ' ' ' S b i.] ' ' ' ' ' ' ' ' ' ' ' ' ' ' ' ' S b i.] ' ' ' ' ' ' ' ' ' ' ' ' ' ' ' U < ",
"v u.] ' ' ' ' ' ' ' ' ' ' ' ' ' ' ' ` n c i.] ' ' ' ' ' ' ' ' ' ' ' ' ' ' ' ` n c i.] ' ' ' ' ' ' ' ' ' ' ' ' ' ' ' ` n c i.] ' ' ' ' ' ' ' ' ' ' ' ' ' ' ' F ; ",
"v i.] ' ' ' ' ' ' ' ' ' ' ' ' ' ' ' ` n v p.] ' ' ' ' ' ' ' ' ' ' ' ' ' ' ' ` n v p.] ' ' ' ' ' ' ' ' ' ' ' ' ' ' ' ` n v p.] ' ' ' ' ' ' ' ' ' ' ' ' ' ' ' F ; ",
"s ,.] ' ' ' ' ' ' ' ' ' ' ' ' ' ' ' Q c d ,.] ' ' ' ' ' ' ' ' ' ' ' ' ' ' ' Q c d ,.] ' ' ' ' ' ' ' ' ' ' ' ' ' ' ' Q c d ,.] ' ' ' ' ' ' ' ' ' ' ' ' ' ' ^ V ; ",
"7 ) ] ] ] ] ] ] ] ] ' ` ` ` ` ` ` Q C j 0 ) ] ] ] ] ] ] ] ] ' ` ` ` ` ` ` Q C j 0 ) ] ] ] ] ] ] ] ' ` ` ` ` ` ` ` Q C j 0 ) ] ] ] ] ] ] ' ` ` ` ` ` ` ` ^ S c : ",
"2 U W E E E E E E E F n n n n n n x h p 4 Y W E E E E E E E F n n n n n n x h p 4 Y W E E E E E W K m n n n n n n x h p 4 Y W E E E E W I M n n n n n n v h f * ",
"f r e e e e e e e e < p c c c c c v v c g r e e e e e e e e < p c c c c c v v c g r e e e e e e r 3 e c c c c c c v v c g r e e e e e r 6 6 x c c c c c c v v l ",
"5._ ( ( ( ( ( ( ( / f q.R.B.i.i.i.i.i.p.7._ ( ( ( ( ( ( ( / f q.R.B.i.i.i.i.i.p.7._ ( ( ( ( ( ( ) c O.R.D.a.i.i.i.i.i.p.7._ ( ( ( ( ( ) Z U U.K.d.i.i.i.i.i.i.i.",
"] ' ' ' ' ' ' ' ' ` g u.K.,.] ] ] ] ] ] ] ' ' ' ' ' ' ' ' ` g u.K.,.] ] ] ] ] ] ] ' ' ' ' ' ' ' ] b %.R.8.[ ] ] ] ] ] ] ] ' ' ' ' ' ' ] D E E.p.} ] ] ] ] ] ] ] ",
"' ' ' ' ' ' ' ' ' R t 0.1.' ' ' ' ' ' ' ' ' ' ' ' ' ' ' ' R t 0.1.' ' ' ' ' ' ' ' ' ' ' ' ' ' ' ^ p @.e.] ' ' ' ' ' ' ' ' ' ' ' ' ' ' _ l T d.} ' ' ' ' ' ' ' ' ",
"' ' ' ' ' ' ' ' ' U q 8.+.` ' ' ' ' ' ' ' ' ' ' ' ' ' ' ' U q 8.+.` ' ' ' ' ' ' ' ' ' ' ' ' ' ] ! r +.,.` ' ' ' ' ' ' ' ' ' ' ' ' ' ' ) d Y 0.` ' ' ' ' ' ' ' ' ",
"' ' ' ' ' ' ' ' ( F q 8.@.` ' ' ' ' ' ' ' ' ' ' ' ' ' ' ( F q 8.@.` ' ' ' ' ' ' ' ' ' ' ' ' ' ` L r +.,.` ' ' ' ' ' ' ' ' ' ' ' ' ' ' R a Y 0.` ' ' ' ' ' ' ' ' ",
"_ _ _ _ _ _ _ ( G b 8 ' | ' ' ' ' ' ' ' _ _ _ _ _ _ _ ( G b 8 ' | ' ' ' ' ' ' ' ' _ _ _ _ _ _ P m e I O.' ' ' ' ' ' ' ' _ _ _ _ _ _ T N p n $.' ' ' ' ' ' ' ' ` ",
"S S S S S S S A n v 7 F ] ' ' ' ' ' ' ) G S S S S S S A n v 7 F ] ' ' ' ' ' ' ' ^ D S S S S S m b w v ] ' ' ' ' ' ' ' ) G S S S S S N b p p ` ' ' ' ' ' ' ' ` L "
};
